<svg width="690" height="512" viewBox="0 0 690 512" fill="none" xmlns="http://www.w3.org/2000/svg">
<path d="M2.23448 332.03C-5.78131 313.378 9.68506 305.801 18.4202 304.343C63.8943 304.343 97.0368 332.03 120.159 337.859C143.282 343.688 174.883 342.23 216.503 364.817C258.124 387.404 266.602 407.804 288.953 428.934C311.305 450.063 329.803 436.948 360.633 439.134C391.463 441.32 402.254 463.178 360.633 479.936C319.013 496.693 298.973 480.664 266.602 479.936C234.23 479.207 191.839 443.506 174.883 419.462C157.926 395.418 131.721 375.017 97.0368 371.374C62.3531 367.731 12.2542 355.345 2.23448 332.03Z" fill="url(#paint0_linear)"/>
<path d="M381.897 426.771L465.417 484.815L330.4 511.237L381.897 426.771Z" fill="url(#paint1_linear)"/>
<path d="M567.776 279.175C569.298 266.55 576.78 262.111 580.331 261.469C595.93 266.088 614.192 253.001 627.888 256.85C641.584 260.699 652.237 279.175 658.705 285.333C665.173 291.492 698.272 297.65 686.858 316.895C675.445 336.14 657.944 316.895 630.932 311.507C603.92 306.118 605.822 323.439 593.647 328.827C581.473 334.216 571.961 325.748 567.776 316.895C563.591 308.043 565.874 294.956 567.776 279.175Z" fill="url(#paint2_linear)"/>
<path fill-rule="evenodd" clip-rule="evenodd" d="M184.253 483.781C172.148 471.305 172.435 451.365 184.895 439.244C197.355 427.123 217.269 427.411 229.374 439.886C241.48 452.362 241.193 472.302 228.733 484.423C216.273 496.544 196.358 496.256 184.253 483.781Z" fill="white"/>
<path fill-rule="evenodd" clip-rule="evenodd" d="M579.593 239.848C585.9 232.107 597.285 230.948 605.019 237.265C612.752 243.581 613.906 254.982 607.599 262.723C601.292 270.465 589.907 271.624 582.173 265.307C574.439 258.99 573.286 247.59 579.593 239.848Z" fill="white"/>
<path d="M545.47 243.734H556.476" stroke="#28BC00" stroke-width="2" stroke-linecap="round" stroke-linejoin="round"/>
<path d="M562.667 254.754H533.777" stroke="#28BC00" stroke-width="2" stroke-linecap="round" stroke-linejoin="round"/>
<path d="M142.386 242.357H160.958" stroke="#28BC00" stroke-width="2" stroke-linecap="round" stroke-linejoin="round"/>
<path d="M176.091 253.377H147.201" stroke="#28BC00" stroke-width="2" stroke-linecap="round" stroke-linejoin="round"/>
<path d="M154.768 134.914L161.646 141.801" stroke="#28BC00" stroke-width="2" stroke-linecap="round" stroke-linejoin="round"/>
<path d="M500.76 116.318C500.76 95.4236 517.698 78.437 538.592 78.437C559.486 78.437 576.424 95.4236 576.424 116.318C576.424 137.212 559.486 154.198 538.592 154.198C517.698 154.198 500.76 137.212 500.76 116.318Z" fill="white"/>
<path d="M229.744 426.25L251.068 404.899" stroke="#28BC00" stroke-width="2" stroke-linecap="round" stroke-linejoin="round"/>
<path d="M243.501 428.316L273.079 398.701" stroke="#28BC00" stroke-width="2" stroke-linecap="round" stroke-linejoin="round"/>
<path d="M485.627 167.284L501.447 151.443" stroke="#28BC00" stroke-width="2" stroke-linecap="round" stroke-linejoin="round"/>
<path d="M512.453 155.576L486.315 181.748" stroke="#28BC00" stroke-width="2" stroke-linecap="round" stroke-linejoin="round"/>
<path d="M158.207 125.96L173.34 141.112" stroke="#28BC00" stroke-width="2" stroke-linecap="round" stroke-linejoin="round"/>
<path d="M524.146 406.277L533.776 415.919" stroke="#28BC00" stroke-width="2" stroke-linecap="round" stroke-linejoin="round"/>
<path d="M506.262 402.833L529.65 426.25" stroke="#28BC00" stroke-width="2" stroke-linecap="round" stroke-linejoin="round"/>
<path d="M603.251 382.86L608.753 388.37" stroke="#28BC00" stroke-width="2" stroke-linecap="round" stroke-linejoin="round"/>
<path d="M589.493 381.482L599.123 391.125" stroke="#28BC00" stroke-width="2" stroke-linecap="round" stroke-linejoin="round"/>
<path d="M464.538 355.408C469.118 355.408 472.83 351.696 472.83 347.116C472.83 342.536 469.118 338.823 464.538 338.823C459.959 338.823 456.247 342.536 456.247 347.116C456.247 351.696 459.959 355.408 464.538 355.408Z" fill="black"/>
<path d="M485.203 372.593L472.64 371.119L464.424 362.954L472.217 367.041L475.09 367.378V363.828C475.09 360.734 472.583 358.226 469.489 358.226H459.5C456.407 358.226 453.899 360.734 453.899 363.828L453.8 428.054C453.793 430.706 455.936 432.862 458.588 432.869C458.592 432.869 458.597 432.869 458.602 432.869C461.247 432.869 463.395 430.729 463.402 428.082L463.503 392.584C463.503 392.579 463.502 392.575 463.502 392.57H465.573L465.575 428.068C465.575 430.72 467.725 432.87 470.376 432.87C473.028 432.869 475.177 430.72 475.177 428.068C475.174 385.358 475.09 383.493 475.09 383.493L469.868 382.88C468.271 382.693 466.309 382.731 465.161 380.609L458.784 368.631L467.98 377.77C468.616 378.402 469.445 378.802 470.334 378.906L484.27 380.541C486.467 380.798 488.452 379.226 488.709 377.033C488.967 374.838 487.397 372.85 485.202 372.593L485.203 372.593Z" fill="black"/>
<path d="M529.781 324.584L529.799 330.752C529.806 333.4 531.954 335.54 534.599 335.54C534.604 335.54 534.608 335.54 534.613 335.54C537.264 335.533 539.408 333.377 539.4 330.725L539.383 324.584H529.781Z" fill="black"/>
<path d="M518.024 323.355L518.024 330.738C518.023 333.39 520.173 335.54 522.824 335.54C522.824 335.54 522.824 335.54 522.825 335.54C525.476 335.54 527.625 333.391 527.625 330.739L527.626 324.584H521.515C520.195 324.584 518.981 324.123 518.024 323.355Z" fill="black"/>
<path d="M528.663 258.079C533.242 258.079 536.954 254.367 536.954 249.787C536.954 245.207 533.242 241.494 528.663 241.494C524.083 241.494 520.371 245.207 520.371 249.787C520.371 254.367 524.083 258.079 528.663 258.079Z" fill="black"/>
<path d="M543.602 302.946H539.409C539.409 300.412 539.409 299.972 539.409 297.018C539.409 295.891 538.495 294.977 537.368 294.977H536.732C536.96 293.556 538.488 284.042 538.732 282.525C538.838 281.864 538.776 281.186 538.553 280.555L533.816 267.177L534.1 267.6L539.302 275.332V266.499C539.302 263.405 536.794 260.897 533.701 260.897H523.712C520.618 260.897 518.11 263.405 518.11 266.499V267.923L505.287 275.254C506.113 276.691 506.502 278.397 506.294 280.17C506.029 282.429 504.846 284.356 503.163 285.626C503.359 285.552 503.552 285.463 503.74 285.356L518.11 277.14L518.026 300.703C519.71 299.353 521.376 299.476 522.238 299.476V297.018C522.238 294.859 523.502 292.931 525.402 292.032L527.226 280.677L526.495 272.347L526.273 269.849L530.669 282.264C530.457 283.583 528.865 293.501 528.628 294.977H527.749C526.622 294.977 525.708 295.891 525.708 297.018C525.708 299.946 525.708 300.429 525.708 302.946H521.515C520.343 302.946 519.393 303.896 519.393 305.067V318.992C519.393 320.164 520.343 321.114 521.515 321.114H543.602C544.774 321.114 545.723 320.164 545.723 318.992V305.067C545.723 303.896 544.774 302.946 543.602 302.946ZM531.833 300.255C532.047 300.29 532.261 300.306 532.472 300.306C533.371 300.306 534.218 299.999 534.901 299.476H535.326V302.946H529.79V299.476H530.026C530.537 299.87 531.151 300.146 531.833 300.255V300.255Z" fill="black"/>
<path d="M151.513 279.488L142.714 278.548C141.322 278.399 140.077 277.829 139.091 276.978C137.572 277.325 136.093 276.399 135.698 274.942L132.315 262.477L132.316 322.051C132.316 324.454 134.264 326.401 136.666 326.401C139.068 326.401 141.015 324.454 141.015 322.051C141.015 321.127 141.015 293.717 141.015 288.225C141.015 287.703 141.438 287.281 141.96 287.281C142.476 287.281 142.893 287.698 142.893 288.214C142.893 293.761 142.893 321.535 142.893 322.051C142.893 324.454 144.841 326.401 147.243 326.401C149.645 326.401 151.593 324.454 151.593 322.051L151.513 279.488Z" fill="black"/>
<path d="M144.123 265.354L146.401 265.598L144.014 256.805L134.441 259.403L137.211 269.609C138.25 266.848 141.054 265.026 144.123 265.354Z" fill="black"/>
<path d="M160.223 261.076C160.223 261.076 160.223 261.076 160.223 261.076C160.199 256.37 156.352 252.541 151.646 252.541L135.161 252.61L128.308 250.012L134.452 242.235C134.445 242.367 134.441 242.5 134.441 242.633C134.441 246.782 137.804 250.146 141.953 250.146C146.102 250.146 149.465 246.782 149.465 242.633C149.465 238.484 146.102 235.12 141.953 235.12C139.433 235.12 137.204 236.363 135.841 238.268C135.661 237.497 135.231 236.778 134.562 236.249C132.991 235.008 130.712 235.275 129.471 236.846L119.552 249.4C118.836 250.307 118.594 251.501 118.902 252.614C119.21 253.728 120.031 254.628 121.111 255.037L131.611 259.018C131.771 257.839 132.628 256.934 133.693 256.645C138.227 255.414 138.874 255.239 143.266 254.047C144.686 253.661 146.319 254.388 146.801 256.166L149.45 265.923L151.513 266.144V261.116C151.513 260.714 151.839 260.387 152.242 260.386C152.644 260.385 152.972 260.71 152.974 261.113V261.113C152.98 262.336 153.015 269.331 153.015 269.331L143.803 268.347C141.812 268.134 140.027 269.576 139.814 271.566C139.602 273.557 141.043 275.343 143.033 275.556L156.275 276.97C157.299 277.08 158.323 276.749 159.09 276.056C159.855 275.364 160.29 274.379 160.285 273.347L160.223 261.076Z" fill="black"/>
<path d="M283.857 367.985C284.839 367.623 285.562 366.773 285.762 365.745C285.962 364.717 285.611 363.658 284.835 362.954L272.953 352.156C271.728 351.042 269.832 351.133 268.719 352.358C268.171 352.961 267.917 353.726 267.943 354.48C266.694 352.745 264.659 351.614 262.358 351.614C259.906 351.614 257.755 352.898 256.536 354.83C256.648 353.985 256.403 353.099 255.785 352.419C254.672 351.193 252.776 351.103 251.551 352.216L239.668 363.014C238.893 363.718 238.542 364.777 238.742 365.805C238.942 366.833 239.664 367.683 240.647 368.045L253.566 372.809L253.531 428.206C253.531 430.406 255.314 432.19 257.514 432.19C259.715 432.19 261.498 430.406 261.498 428.206V397.222C261.498 396.747 261.883 396.362 262.358 396.362C262.833 396.362 263.218 396.747 263.218 397.222V428.206C263.218 430.406 265.001 432.19 267.201 432.19C269.402 432.19 271.185 430.406 271.185 428.206L271.15 372.671L283.857 367.985ZM267.466 367.639L265.244 373.446L263.653 377.602L264.545 373.402C264.607 373.107 264.562 372.8 264.417 372.536L263.192 370.309L264.281 368.33C264.356 368.192 264.354 368.025 264.274 367.891C264.194 367.756 264.049 367.673 263.893 367.673H260.906C260.749 367.673 260.604 367.756 260.524 367.891C260.445 368.025 260.442 368.192 260.518 368.33L261.606 370.309L260.377 372.544C260.235 372.803 260.188 373.105 260.246 373.394L261.025 377.602L259.473 373.338L257.314 367.801L247.356 364.129L255.582 356.653C255.655 356.587 255.723 356.518 255.788 356.446C255.587 357.094 255.478 357.782 255.478 358.495C255.478 362.295 258.558 365.375 262.358 365.375C266.158 365.375 269.238 362.295 269.238 358.495C269.238 357.856 269.149 357.238 268.986 356.652L277.148 364.069L267.466 367.639Z" fill="black"/>
<path d="M504.258 93.7354C507.753 93.7354 510.586 90.9017 510.586 87.4062C510.586 83.9107 507.753 81.077 504.258 81.077C500.762 81.077 497.929 83.9107 497.929 87.4062C497.929 90.9017 500.762 93.7354 504.258 93.7354Z" fill="black"/>
<path d="M519.083 130.587H518.55V127.83C519.307 127.258 519.772 126.358 519.767 125.379L519.654 102.944C519.634 98.9787 516.393 95.7529 512.428 95.7529H509.212C508.812 96.7981 505.942 104.522 505.513 105.643L506.406 101.439C506.468 101.143 506.423 100.835 506.278 100.571L505.052 98.3417L506.141 96.4105C506.217 96.2731 506.214 96.1059 506.135 95.9709C506.055 95.8358 505.91 95.7531 505.753 95.7531H502.762C502.606 95.7531 502.46 95.8358 502.381 95.9709C502.301 96.1059 502.298 96.2731 502.374 96.4105L503.463 98.3417L502.233 100.579C502.09 100.839 502.044 101.14 502.102 101.431L502.882 105.643C502.492 104.644 499.726 96.8392 499.303 95.7531H496.036C492.071 95.7531 488.829 98.9789 488.809 102.944L488.697 125.38C488.688 127.066 490.049 128.44 491.735 128.449C491.74 128.449 491.746 128.449 491.751 128.449C493.43 128.449 494.795 127.092 494.804 125.41L494.917 102.974C494.919 102.649 495.183 102.387 495.508 102.388C495.833 102.388 496.096 102.652 496.096 102.977L496.097 154.311C496.097 156.335 497.737 157.976 499.761 157.976C501.785 157.976 503.425 156.335 503.425 154.311V125.81C503.425 125.373 503.78 125.019 504.216 125.019C504.653 125.019 505.007 125.373 505.007 125.81V154.311C505.007 156.335 506.648 157.976 508.672 157.976C510.695 157.976 512.336 156.335 512.336 154.311V148.069C510.875 147.297 509.876 145.762 509.876 143.998V131.846C509.876 130.081 510.875 128.546 512.336 127.774C512.336 122.049 512.271 127.902 512.27 102.987C512.27 102.636 512.552 102.351 512.902 102.348C513.253 102.344 513.541 102.624 513.548 102.974L513.66 125.41C513.665 126.452 514.205 127.378 514.993 127.917V130.587H514.477C513.782 130.587 513.219 131.151 513.219 131.846V143.998C513.219 144.693 513.782 145.257 514.477 145.257H519.083C519.778 145.257 520.341 144.693 520.341 143.998V131.846C520.341 131.151 519.777 130.587 519.083 130.587H519.083Z" fill="black"/>
<path d="M375.815 52.2662C380.086 52.2662 383.547 48.8042 383.547 44.5335C383.547 40.2628 380.086 36.8008 375.815 36.8008C371.545 36.8008 368.084 40.2628 368.084 44.5335C368.084 48.8042 371.545 52.2662 375.815 52.2662Z" fill="black"/>
<path d="M390.904 62.3222C389.376 57.8756 386.781 54.731 382.098 54.731C381.626 55.9633 377.939 65.5963 377.399 67.0071L378.489 61.8721C378.566 61.5116 378.51 61.1354 378.333 60.8125L376.836 58.09L378.116 55.534C378.209 55.3662 378.205 55.1621 378.108 54.9971C378.01 54.8322 377.833 54.7312 377.641 54.7312H373.989C373.798 54.7312 373.621 54.8322 373.523 54.9971C373.425 55.1621 373.422 55.3662 373.515 55.534L374.896 58.09L373.393 60.8227C373.219 61.1395 373.162 61.5077 373.233 61.8625L374.186 67.0073C373.692 65.741 370.104 56.1942 369.534 54.7312C364.852 54.7312 362.255 57.8738 360.727 62.3224C358.044 70.1288 351.953 86.7966 351.892 86.9642C351.304 88.5697 351.892 90.3151 353.213 91.2682C353.213 94.4004 353.213 93.9121 353.213 97.2662H352.583C351.734 97.2662 351.046 97.9543 351.046 98.8031V113.645C351.046 114.493 351.734 115.181 352.583 115.181H358.208C359.057 115.181 359.745 114.493 359.745 113.645V98.8031C359.745 97.9543 359.057 97.2662 358.208 97.2662H357.558C357.558 95.1109 357.558 93.4309 357.558 91.2841C358.152 90.8619 358.63 90.263 358.899 89.5267C358.951 89.3846 363.325 77.4153 366.313 68.9561C366.119 70.5381 366.691 67.4245 361.496 94.2507C362.907 95.2726 363.827 96.932 363.827 98.8033V99.2095C364.451 99.2095 365.145 99.2095 365.895 99.2095V126.274C365.895 128.746 367.9 130.751 370.372 130.751C372.844 130.751 374.849 128.746 374.849 126.274V99.2093C375.492 99.2093 376.138 99.2093 376.782 99.2093V126.274C376.782 128.746 378.786 130.751 381.258 130.751C383.731 130.751 385.735 128.746 385.735 126.274V99.2093C386.814 99.2093 387.778 99.2093 388.582 99.2093C389.201 99.2093 389.787 98.9325 390.181 98.4546C390.575 97.9768 390.734 97.348 390.616 96.7401C384.893 67.1869 385.513 70.5588 385.317 68.9559C388.305 77.4151 392.679 89.3844 392.731 89.5265C393.439 91.4621 395.581 92.457 397.516 91.7495C399.451 91.042 400.446 88.8994 399.739 86.9642C399.678 86.7966 393.587 70.1295 390.904 62.3222H390.904Z" fill="black"/>
<path d="M185.368 80.7622C188.662 80.7622 191.333 78.0915 191.333 74.7971C191.333 71.5027 188.662 68.832 185.368 68.832C182.074 68.832 179.404 71.5027 179.404 74.7971C179.404 78.0915 182.074 80.7622 185.368 80.7622Z" fill="black"/>
<path d="M195.927 84.1013C194.704 83.1681 193.208 82.6628 191.669 82.6628H190.119C189.742 83.6474 186.956 90.9273 186.552 91.9835L187.393 88.021C187.452 87.7427 187.409 87.4525 187.272 87.2033L186.117 85.1023L187.144 83.2346C187.296 82.9565 187.095 82.6151 186.777 82.6151H183.959C183.642 82.6151 183.44 82.9562 183.593 83.2346L184.62 85.1023L183.46 87.211C183.326 87.4556 183.282 87.7397 183.336 88.0134L184.072 91.9835C183.699 91.0272 180.941 83.6872 180.541 82.6628H177.708C175.44 82.6628 173.363 83.9039 172.288 85.9022L170.299 89.6009L166.397 84.075C165.48 82.7768 163.685 82.4673 162.387 83.3845C161.088 84.3015 160.779 86.0972 161.696 87.3958L168.28 96.7197C169.515 98.4679 172.154 98.3024 173.165 96.4227C175.79 91.5242 177.676 88.7366 177.676 88.7366L177.678 137.849C177.678 139.756 179.224 141.302 181.131 141.302C183.038 141.302 184.584 139.756 184.584 137.849V110.243H186.075V137.849C186.075 139.756 187.621 141.302 189.528 141.302C191.435 141.302 192.981 139.756 192.981 137.849C192.981 113.563 192.918 109.677 192.918 88.7366L197.338 92.4173L197.353 89.4256C197.359 88.1284 197.627 86.8916 198.106 85.764L195.927 84.1013Z" fill="black"/>
<path d="M289.637 176.688C289.621 173.545 287.052 170.988 283.909 170.988H281.476C281.467 170.972 281.457 170.955 281.447 170.939C281.259 171.43 280.791 172.652 278.428 178.828L279.135 175.495C279.185 175.261 279.149 175.017 279.033 174.807L278.062 173.04L278.926 171.469C279.054 171.235 278.885 170.948 278.618 170.948H276.247C275.98 170.948 275.81 171.235 275.939 171.469L276.803 173.04L275.827 174.814C275.714 175.019 275.677 175.258 275.723 175.489L276.342 178.828C276.02 178.003 273.708 171.85 273.372 170.988H270.915C267.772 170.988 265.202 173.545 265.187 176.688L265.097 194.472C265.091 195.809 266.169 196.898 267.506 196.905C267.51 196.905 267.514 196.905 267.518 196.905C268.849 196.905 269.932 195.829 269.938 194.497L270.028 176.712C270.029 176.455 270.238 176.247 270.496 176.247C270.754 176.248 270.962 176.457 270.962 176.715C270.962 182.632 270.963 216.253 270.963 217.406C270.963 219.01 272.264 220.311 273.868 220.311C275.472 220.311 276.772 219.01 276.772 217.406V194.187H278.026V217.406C278.026 219.01 279.327 220.311 280.931 220.311C282.535 220.311 283.835 219.01 283.835 217.406C283.835 178.967 283.784 201.01 283.783 176.675C283.783 176.395 284.009 176.168 284.289 176.168C284.569 176.168 284.796 176.395 284.796 176.675C284.796 176.687 284.796 176.7 284.796 176.712L284.885 194.497C284.892 195.829 285.974 196.905 287.305 196.905C287.309 196.905 287.313 196.905 287.318 196.905C288.654 196.898 289.733 195.809 289.726 194.472L289.637 176.688Z" fill="black"/>
<path d="M277.432 159.355C274.662 159.355 272.416 161.601 272.416 164.372C272.416 167.147 274.67 169.389 277.432 169.389C280.175 169.389 282.449 167.166 282.449 164.372C282.449 161.601 280.203 159.355 277.432 159.355Z" fill="black"/>
<path d="M578.832 261.727L578.846 257.5C580.039 257.5 583.788 257.135 583.788 259.634C583.774 262.021 580.025 261.727 578.832 261.727ZM584.743 266.206C584.757 263.468 580.25 263.861 578.818 263.861L578.804 268.523C580.236 268.523 584.743 268.832 584.743 266.206H584.743ZM563.093 263.131C563.093 254.004 570.422 246.576 579.548 246.576C588.674 246.576 596.045 253.948 596.045 263.075C596.045 272.202 588.618 279.573 579.548 279.573C570.478 279.573 563.093 272.216 563.093 263.131ZM575.378 262.232C575.308 262.232 575.238 262.232 575.154 262.232L575.125 267.778C575.083 268.045 574.929 268.481 574.325 268.481C574.353 268.509 572.781 268.481 572.781 268.481L572.346 271.008L575.097 271.022C575.617 271.022 576.108 271.036 576.614 271.036L576.6 274.546L578.72 274.56L578.734 271.078C579.309 271.092 579.871 271.092 580.418 271.106L580.404 274.575L582.524 274.589L582.538 271.078C586.09 270.882 588.59 269.997 588.912 266.655C589.165 263.959 587.916 262.766 585.894 262.274C587.129 261.656 587.888 260.561 587.719 258.722C587.48 256.208 585.332 255.366 582.595 255.113L582.609 251.631L580.489 251.617V255.001C579.927 255.001 579.365 255.015 578.804 255.015L578.818 251.603L576.698 251.589L576.684 255.071C576.221 255.085 575.771 255.085 575.336 255.085V255.071L572.416 255.057V257.318C572.416 257.318 573.974 257.29 573.946 257.318C574.803 257.318 575.083 257.823 575.154 258.244L575.139 262.204C575.21 262.218 575.294 262.218 575.378 262.232V262.232Z" fill="black"/>
<path d="M361.601 385.017L352.336 379.543L361.6 392.604L370.872 379.543L361.597 385.017H361.601ZM361.742 362.405L352.474 377.786L361.741 383.264L371.007 377.791L361.742 362.405Z" fill="#8A6F91"/>
<path d="M288.105 67.602H285.726V72.2905H289.467V74.2533H285.726V78.9417H288.221C288.862 78.9417 293.483 79.0139 293.477 73.4862C293.47 67.9599 288.994 67.602 288.105 67.602ZM287.705 56.6327C278.514 56.6327 271.062 64.0857 271.062 73.2781C271.062 82.4705 278.514 89.9235 287.705 89.9235C296.897 89.9235 304.349 82.4705 304.349 73.2781C304.349 64.0857 296.897 56.6327 287.705 56.6327ZM288.36 82.268H282.332V74.2533H280.208V72.2905H282.332V64.2771H287.506C288.729 64.2771 296.836 64.0233 296.836 73.4238C296.834 82.9782 288.36 82.268 288.36 82.268Z" fill="#AA8800"/>
<path d="M562.886 152.406C559.643 152.406 556.472 153.368 553.775 155.17C551.078 156.972 548.976 159.534 547.734 162.531C546.493 165.528 546.168 168.826 546.801 172.008C547.434 175.19 548.996 178.113 551.29 180.406C553.583 182.7 556.505 184.263 559.687 184.895C562.868 185.528 566.166 185.203 569.162 183.962C572.159 182.721 574.721 180.618 576.523 177.921C578.325 175.224 579.287 172.052 579.287 168.808C579.287 166.654 578.862 164.521 578.038 162.531C577.214 160.541 576.006 158.733 574.483 157.21C572.96 155.687 571.152 154.479 569.162 153.654C567.173 152.83 565.04 152.406 562.886 152.406ZM562.529 157.433H566.06C566.133 157.433 566.204 157.449 566.269 157.482C566.334 157.514 566.39 157.561 566.434 157.618C566.478 157.676 566.507 157.743 566.521 157.814C566.534 157.885 566.531 157.959 566.511 158.028L563.735 167.484L566.341 166.689L565.783 168.581L563.153 169.347L561.448 175.106H570.571C570.644 175.106 570.715 175.123 570.78 175.156C570.845 175.188 570.901 175.235 570.944 175.293C570.988 175.351 571.017 175.419 571.03 175.49C571.043 175.561 571.04 175.634 571.02 175.704L570.224 178.438C570.186 178.568 570.107 178.682 569.999 178.763C569.891 178.844 569.759 178.888 569.624 178.889H555.687L558.042 170.93L555.436 171.723L556.01 169.863L558.621 169.07L561.931 157.889C561.967 157.758 562.045 157.643 562.153 157.56C562.261 157.478 562.393 157.433 562.529 157.432L562.529 157.433Z" fill="black"/>
<path d="M150.772 364.616C147.605 364.616 147.152 366.679 146.855 367.929C146.664 368.691 146.488 369.457 146.329 370.227H158.713C161.883 370.227 162.336 368.161 162.633 366.913C163.028 365.282 163.158 364.615 163.158 364.615L150.772 364.616ZM168.088 353.947H155.993L154.994 359.549L165.907 359.565C171.284 359.565 172.869 361.517 172.824 364.754C172.798 366.409 172.08 369.218 171.769 370.131C170.941 372.557 169.24 375.321 162.862 375.314L152.25 375.308L151.247 380.917H163.314C167.571 380.917 169.377 380.419 171.297 379.54C175.548 377.565 178.079 373.372 179.094 367.897C180.601 359.746 178.723 353.948 168.088 353.948V353.947Z" fill="#37ABC8"/>
<path d="M313.446 231.985C313.72 231.985 313.997 231.929 314.264 231.808C315.298 231.34 316.394 231.022 317.524 230.867C318.612 230.718 319.374 229.715 319.223 228.624C319.074 227.536 318.091 226.762 316.981 226.925C315.473 227.134 314.005 227.556 312.624 228.183C311.624 228.636 311.178 229.814 311.632 230.815C311.964 231.549 312.688 231.985 313.446 231.985Z" fill="black"/>
<path d="M325.203 230.753H329.182C330.282 230.753 331.171 229.864 331.171 228.764C331.171 227.663 330.282 226.774 329.182 226.774H325.203C324.103 226.774 323.214 227.663 323.214 228.764C323.214 229.864 324.105 230.753 325.203 230.753Z" fill="black"/>
<path d="M388.691 218.816L377.876 208C377.021 207.144 375.529 207.144 374.675 208L370.605 212.073L366.535 208.002C365.679 207.146 364.187 207.146 363.334 208.002L352.519 218.816H319.177C310.402 218.816 303.262 225.956 303.262 234.733V242.691C303.262 241.862 303.77 241.153 304.49 240.855C305.24 242.649 306.318 244.269 307.635 245.66C307.669 245.789 307.683 245.924 307.72 246.052C308.031 247.106 307.428 248.212 306.374 248.521C306.185 248.577 305.998 248.602 305.813 248.602C304.951 248.602 304.159 248.041 303.905 247.174C303.477 245.723 303.262 244.217 303.262 242.691V302.38C303.262 301.28 304.151 300.391 305.252 300.391C306.352 300.391 307.241 301.28 307.241 302.38C307.241 303.524 307.402 304.656 307.72 305.741C308.031 306.795 307.428 307.901 306.374 308.21C306.185 308.266 305.998 308.291 305.813 308.291C304.951 308.291 304.159 307.73 303.905 306.863C303.477 305.412 303.262 303.906 303.262 302.38V312.026C303.262 319.871 309.646 326.256 317.49 326.256H422.626V316.308C422.626 317.408 421.736 318.297 420.636 318.297H416.657C415.557 318.297 414.668 317.408 414.668 316.308C414.668 315.207 415.557 314.318 416.657 314.318H420.636C421.736 314.318 422.626 315.207 422.626 316.308V303.375H396.764C386.343 303.375 377.864 294.895 377.864 284.473C377.864 274.052 386.343 265.572 396.764 265.572H422.626V256.619C422.626 257.719 421.736 258.608 420.636 258.608H416.657C415.557 258.608 414.668 257.719 414.668 256.619C414.668 255.518 415.557 254.629 416.657 254.629H420.636C421.736 254.629 422.626 255.518 422.626 256.619V250.65V246.67V218.816H388.691ZM404.721 314.318H408.7C409.8 314.318 410.689 315.207 410.689 316.308C410.689 317.408 409.8 318.297 408.7 318.297H404.721C403.621 318.297 402.732 317.408 402.732 316.308C402.732 315.207 403.621 314.318 404.721 314.318ZM392.785 314.318H396.764C397.864 314.318 398.753 315.207 398.753 316.308C398.753 317.408 397.864 318.297 396.764 318.297H392.785C391.685 318.297 390.795 317.408 390.795 316.308C390.795 315.207 391.685 314.318 392.785 314.318ZM380.848 314.318H384.827C385.927 314.318 386.817 315.207 386.817 316.308C386.817 317.408 385.927 318.297 384.827 318.297H380.848C379.748 318.297 378.859 317.408 378.859 316.308C378.859 315.207 379.748 314.318 380.848 314.318ZM376.277 212.027L383.065 218.816L410.916 246.67H400.191L377.777 224.251C377.373 223.859 376.84 223.642 376.277 223.642L375.338 223.69L352.36 246.67H341.638L373.42 214.886L376.277 212.027ZM364.933 212.027L367.792 214.886L336.012 246.67H330.294L358.145 218.816L364.933 212.027ZM319.177 222.795H348.541L343.018 228.318C342.811 227.441 342.059 226.774 341.118 226.774H337.14C336.039 226.774 335.15 227.663 335.15 228.764C335.15 229.864 336.039 230.753 337.14 230.753H340.581L324.666 246.67H319.177C313.999 246.67 309.592 243.35 307.943 238.73C308.256 237.842 308.645 236.987 309.159 236.203C309.762 235.284 309.503 234.05 308.582 233.449C308.204 233.203 307.774 233.135 307.356 233.163C308.128 227.321 313.13 222.795 319.177 222.795ZM315.201 315.88C314.866 316.61 314.146 317.042 313.39 317.042C313.114 317.042 312.833 316.984 312.565 316.861C311.186 316.23 309.905 315.406 308.757 314.412C307.927 313.691 307.838 312.434 308.556 311.604C309.278 310.774 310.533 310.685 311.363 311.403C312.224 312.151 313.185 312.77 314.22 313.244C315.218 313.699 315.656 314.881 315.201 315.88ZM315.201 256.191C314.866 256.921 314.146 257.353 313.39 257.353C313.114 257.353 312.833 257.295 312.565 257.172C311.186 256.541 309.905 255.717 308.757 254.722C307.927 254.002 307.838 252.745 308.556 251.915C309.278 251.085 310.533 250.996 311.363 251.714C312.224 252.462 313.185 253.081 314.22 253.555C315.218 254.01 315.656 255.192 315.201 256.191ZM325.145 318.297H321.167C320.067 318.297 319.177 317.408 319.177 316.308C319.177 315.207 320.067 314.318 321.167 314.318H325.145C326.246 314.318 327.135 315.207 327.135 316.308C327.135 317.408 326.246 318.297 325.145 318.297ZM325.145 258.608H321.167C320.067 258.608 319.177 257.719 319.177 256.619C319.177 255.518 320.067 254.629 321.167 254.629H325.145C326.246 254.629 327.135 255.518 327.135 256.619C327.135 257.719 326.246 258.608 325.145 258.608ZM337.082 318.297H333.103C332.003 318.297 331.114 317.408 331.114 316.308C331.114 315.207 332.003 314.318 333.103 314.318H337.082C338.182 314.318 339.071 315.207 339.071 316.308C339.071 317.408 338.182 318.297 337.082 318.297ZM337.082 258.608H333.103C332.003 258.608 331.114 257.719 331.114 256.619C331.114 255.518 332.003 254.629 333.103 254.629H337.082C338.182 254.629 339.071 255.518 339.071 256.619C339.071 257.719 338.182 258.608 337.082 258.608ZM349.018 318.297H345.039C343.939 318.297 343.05 317.408 343.05 316.308C343.05 315.207 343.939 314.318 345.039 314.318H349.018C350.118 314.318 351.008 315.207 351.008 316.308C351.008 317.408 350.118 318.297 349.018 318.297ZM349.018 258.608H345.039C343.939 258.608 343.05 257.719 343.05 256.619C343.05 255.518 343.939 254.629 345.039 254.629H349.018C350.118 254.629 351.008 255.518 351.008 256.619C351.008 257.719 350.118 258.608 349.018 258.608ZM360.954 318.297H356.976C355.876 318.297 354.986 317.408 354.986 316.308C354.986 315.207 355.876 314.318 356.976 314.318H360.954C362.055 314.318 362.944 315.207 362.944 316.308C362.944 317.408 362.055 318.297 360.954 318.297ZM360.954 258.608H356.976C355.876 258.608 354.986 257.719 354.986 256.619C354.986 255.518 355.876 254.629 356.976 254.629H360.954C362.055 254.629 362.944 255.518 362.944 256.619C362.944 257.719 362.055 258.608 360.954 258.608ZM372.891 318.297H368.912C367.812 318.297 366.923 317.408 366.923 316.308C366.923 315.207 367.812 314.318 368.912 314.318H372.891C373.991 314.318 374.88 315.207 374.88 316.308C374.88 317.408 373.991 318.297 372.891 318.297ZM372.891 258.608H368.912C367.812 258.608 366.923 257.719 366.923 256.619C366.923 255.518 367.812 254.629 368.912 254.629H372.891C373.991 254.629 374.88 255.518 374.88 256.619C374.88 257.719 373.991 258.608 372.891 258.608ZM384.827 258.608H380.848C379.748 258.608 378.859 257.719 378.859 256.619C378.859 255.518 379.748 254.629 380.848 254.629H384.827C385.927 254.629 386.817 255.518 386.817 256.619C386.817 257.719 385.927 258.608 384.827 258.608ZM396.764 258.608H392.785C391.685 258.608 390.795 257.719 390.795 256.619C390.795 255.518 391.685 254.629 392.785 254.629H396.764C397.864 254.629 398.753 255.518 398.753 256.619C398.753 257.719 397.864 258.608 396.764 258.608ZM408.7 258.608H404.721C403.621 258.608 402.732 257.719 402.732 256.619C402.732 255.518 403.621 254.629 404.721 254.629H408.7C409.8 254.629 410.689 255.518 410.689 256.619C410.689 257.719 409.8 258.608 408.7 258.608ZM416.542 246.67L400.627 230.753H400.742C401.842 230.753 402.732 229.864 402.732 228.764C402.732 227.663 401.842 226.774 400.742 226.774H396.764C396.73 226.774 396.702 226.792 396.668 226.794L392.669 222.795H418.647V246.67H416.542Z" fill="black"/>
<path d="M412.679 226.774H408.7C407.6 226.774 406.71 227.663 406.71 228.764C406.71 229.864 407.6 230.753 408.7 230.753H412.679C413.779 230.753 414.668 229.864 414.668 228.764C414.668 227.663 413.779 226.774 412.679 226.774Z" fill="black"/>
<path d="M382.838 284.473C382.838 292.151 389.087 298.401 396.764 298.401H422.626V270.546H396.764C389.087 270.546 382.838 276.795 382.838 284.473ZM406.711 284.473C406.711 288.863 403.142 292.432 398.753 292.432C394.364 292.432 390.795 288.863 390.795 284.473C390.795 280.084 394.364 276.515 398.753 276.515C403.142 276.515 406.711 280.084 406.711 284.473Z" fill="black"/>
<path d="M349.146 298.978C357.71 298.978 364.652 292.035 364.652 283.471C364.652 274.907 357.71 267.964 349.146 267.964C340.583 267.964 333.641 274.907 333.641 283.471C333.641 292.035 340.583 298.978 349.146 298.978Z" fill="black" stroke="white" stroke-width="0.387417"/>
<path d="M337.45 278.084L335.375 282.432H341.995L343.922 278.084H337.45Z" fill="#00FF00" stroke="white" stroke-width="0.10529"/>
<path d="M339.13 283.223H342.094L343.724 287.719H336.907L339.13 283.223Z" fill="#00FF00" stroke="white" stroke-width="0.10529"/>
<path d="M345.898 283.025L343.971 287.225L341.995 282.432L343.922 278.084L345.898 283.025Z" fill="#00FF00" stroke="white" stroke-width="0.10529"/>
<path d="M360.584 288.173L362.659 283.825H356.039L354.112 288.173H360.584Z" fill="#00FF00" stroke="white" stroke-width="0.10529"/>
<path d="M358.904 283.034H355.94L354.309 278.538H361.127L358.904 283.034Z" fill="#00FF00" stroke="white" stroke-width="0.10529"/>
<path d="M352.136 283.232L354.062 279.032L356.039 283.825L354.112 288.173L352.136 283.232Z" fill="#00FF00" stroke="white" stroke-width="0.10529"/>
<path d="M343.973 294.767L348.321 296.842V290.221L343.973 288.294V294.767Z" fill="#00FF00" stroke="white" stroke-width="0.10529"/>
<path d="M349.111 293.087V290.122L353.607 288.492V295.31L349.111 293.087Z" fill="#00FF00" stroke="white" stroke-width="0.10529"/>
<path d="M348.913 286.318L353.113 288.245L348.321 290.221L343.973 288.294L348.913 286.318Z" fill="#00FF00" stroke="white" stroke-width="0.10529"/>
<path d="M354.061 271.63L349.713 269.555V276.176L354.061 278.103V271.63Z" fill="#00FF00" stroke="white" stroke-width="0.10529"/>
<path d="M348.923 273.31V276.275L344.427 277.905V271.087L348.923 273.31Z" fill="#00FF00" stroke="white" stroke-width="0.10529"/>
<path d="M349.121 280.079L344.921 278.152L349.713 276.176L354.061 278.103L349.121 280.079Z" fill="#00FF00" stroke="white" stroke-width="0.10529"/>
<path d="M145.055 181.941L146.251 177.888C147.397 178.222 151.098 178.921 150.398 181.32C149.716 183.608 146.2 182.275 145.055 181.941ZM149.475 187.896C150.255 185.272 145.819 184.387 144.444 183.986L143.125 188.458C144.5 188.859 148.74 190.417 149.475 187.896V187.896ZM129.553 178.882C132.107 170.12 141.222 165.042 149.983 167.597C158.744 170.152 163.757 179.293 161.202 188.055C158.647 196.817 149.453 201.814 140.746 199.275C132.039 196.735 127.009 187.604 129.553 178.882ZM141.598 181.459C141.53 181.44 141.463 181.42 141.382 181.396L139.802 186.713C139.687 186.957 139.417 187.332 138.837 187.163C138.857 187.198 137.355 186.731 137.355 186.731L136.23 189.035L138.867 189.819C139.366 189.965 139.834 190.116 140.319 190.257L139.323 193.623L141.354 194.23L142.342 190.891C142.891 191.066 143.43 191.223 143.952 191.39L142.968 194.716L144.999 195.323L145.995 191.957C149.46 192.762 152.107 192.613 153.352 189.495C154.35 186.978 153.484 185.482 151.681 184.444C153.04 184.197 154.074 183.358 154.428 181.545C154.902 179.065 153.076 177.655 150.518 176.646L151.507 173.307L149.475 172.7L148.528 175.948C147.989 175.791 147.446 175.647 146.907 175.49L147.875 172.218L145.844 171.611L144.856 174.95C144.407 174.834 143.976 174.708 143.558 174.586L143.562 174.573L140.762 173.742L140.129 175.912C140.129 175.912 141.633 176.321 141.598 176.34C142.421 176.58 142.549 177.144 142.498 177.568L141.376 181.366C141.44 181.399 141.52 181.422 141.597 181.459L141.598 181.459Z" fill="#FF7F2A"/>
<path d="M221.936 279.682C229.04 279.682 234.799 273.923 234.799 266.818C234.799 259.713 229.04 253.953 221.936 253.953C214.832 253.953 209.073 259.713 209.073 266.818C209.073 273.923 214.832 279.682 221.936 279.682Z" fill="black"/>
<path d="M212.233 262.349L210.511 265.956H216.004L217.602 262.349H212.233Z" fill="white"/>
<path d="M213.626 266.612H216.086L217.438 270.342H211.782L213.626 266.612Z" fill="white"/>
<path d="M219.241 266.448L217.643 269.932L216.004 265.956L217.602 262.349L219.241 266.448Z" fill="white"/>
<path d="M231.425 270.719L233.146 267.112H227.654L226.055 270.719H231.425Z" fill="white"/>
<path d="M230.031 266.456H227.572L226.219 262.726H231.875L230.031 266.456Z" fill="white"/>
<path d="M224.416 266.62L226.014 263.136L227.654 267.112L226.055 270.719L224.416 266.62Z" fill="white"/>
<path d="M217.644 276.189L221.251 277.911V272.418L217.644 270.819V276.189Z" fill="white"/>
<path d="M221.907 274.795V272.336L225.637 270.983V276.64L221.907 274.795Z" fill="white"/>
<path d="M221.743 269.179L225.227 270.778L221.251 272.418L217.644 270.819L221.743 269.179Z" fill="white"/>
<path d="M226.013 256.995L222.406 255.273V260.766L226.013 262.365V256.995Z" fill="white"/>
<path d="M221.751 258.389V260.848L218.021 262.201V256.544L221.751 258.389Z" fill="white"/>
<path d="M221.915 264.004L218.431 262.406L222.406 260.766L226.013 262.365L221.915 264.004Z" fill="white"/>
<path d="M462.166 187.118C469.271 187.118 475.03 181.358 475.03 174.253C475.03 167.148 469.271 161.389 462.166 161.389C455.062 161.389 449.303 167.148 449.303 174.253C449.303 181.358 455.062 187.118 462.166 187.118Z" fill="black"/>
<path d="M452.463 169.784L450.742 173.391H456.234L457.832 169.784H452.463Z" fill="white"/>
<path d="M453.857 174.047H456.316L457.668 177.777H452.012L453.857 174.047Z" fill="white"/>
<path d="M459.472 173.883L457.873 177.367L456.234 173.391L457.832 169.784L459.472 173.883Z" fill="white"/>
<path d="M471.655 178.154L473.376 174.547H467.884L466.286 178.154H471.655Z" fill="white"/>
<path d="M470.261 173.891H467.802L466.45 170.161H472.106L470.261 173.891Z" fill="white"/>
<path d="M464.646 174.055L466.245 170.571L467.884 174.547L466.286 178.154L464.646 174.055Z" fill="white"/>
<path d="M457.875 183.624L461.481 185.346V179.853L457.875 178.254V183.624Z" fill="white"/>
<path d="M462.137 182.231V179.771L465.867 178.418V184.075L462.137 182.231Z" fill="white"/>
<path d="M461.973 176.615L465.457 178.213L461.481 179.853L457.875 178.254L461.973 176.615Z" fill="white"/>
<path d="M466.243 164.43L462.637 162.708V168.201L466.243 169.8V164.43Z" fill="white"/>
<path d="M461.981 165.824V168.283L458.251 169.636V163.979L461.981 165.824Z" fill="white"/>
<path d="M462.145 171.44L458.661 169.841L462.637 168.201L466.243 169.8L462.145 171.44Z" fill="white"/>
<path d="M401.883 416.152C401.868 413.009 399.298 410.452 396.156 410.452H393.723C393.713 410.436 393.703 410.419 393.693 410.403C393.506 410.894 393.038 412.115 390.674 418.292L391.382 414.959C391.431 414.725 391.395 414.481 391.28 414.271L390.308 412.504L391.172 410.933C391.301 410.699 391.131 410.412 390.864 410.412H388.494C388.227 410.412 388.057 410.699 388.185 410.933L389.049 412.504L388.074 414.277C387.961 414.483 387.924 414.722 387.97 414.952L388.588 418.292C388.266 417.467 385.955 411.313 385.619 410.452H383.161C380.018 410.452 377.449 413.009 377.433 416.152L377.344 433.936C377.337 435.273 378.415 436.362 379.752 436.369C379.756 436.369 379.76 436.369 379.764 436.369C381.096 436.369 382.178 435.293 382.185 433.961L382.274 416.176C382.275 415.918 382.485 415.71 382.742 415.711C383 415.712 383.209 415.921 383.209 416.179C383.209 422.096 383.21 455.717 383.21 456.87C383.21 458.474 384.51 459.775 386.114 459.775C387.718 459.775 389.019 458.474 389.019 456.87V433.651H390.273V456.87C390.273 458.474 391.573 459.775 393.177 459.775C394.781 459.775 396.082 458.474 396.082 456.87C396.082 418.431 396.03 440.474 396.029 416.139C396.029 415.859 396.256 415.632 396.536 415.632C396.815 415.632 397.043 415.859 397.043 416.138C397.043 416.151 397.042 416.163 397.042 416.176L397.131 433.96C397.138 435.293 398.221 436.369 399.552 436.369C399.556 436.369 399.56 436.369 399.564 436.369C400.901 436.362 401.979 435.273 401.972 433.936L401.883 416.152Z" fill="black"/>
<path d="M389.679 398.819C386.908 398.819 384.662 401.065 384.662 403.836C384.662 406.611 386.916 408.853 389.679 408.853C392.422 408.853 394.695 406.629 394.695 403.836C394.695 401.065 392.449 398.819 389.679 398.819Z" fill="black"/>
<defs>
<linearGradient id="paint0_linear" x1="404.026" y1="454.031" x2="-103.778" y2="387.451" gradientUnits="userSpaceOnUse">
<stop stop-color="#999999"/>
<stop offset="1" stop-color="#EEEEFF" stop-opacity="0"/>
</linearGradient>
<linearGradient id="paint1_linear" x1="484.61" y1="510.754" x2="400.856" y2="375.561" gradientUnits="userSpaceOnUse">
<stop stop-color="#28BC00"/>
<stop offset="1" stop-color="#28BC00" stop-opacity="0"/>
</linearGradient>
<linearGradient id="paint2_linear" x1="694.363" y1="316.907" x2="531.244" y2="300.096" gradientUnits="userSpaceOnUse">
<stop stop-color="#999999"/>
<stop offset="1" stop-color="#EEEEFF" stop-opacity="0"/>
</linearGradient>
</defs>
</svg>
