<svg width="64" height="64" viewBox="0 0 64 64" fill="none" xmlns="http://www.w3.org/2000/svg">
<rect width="64" height="64" rx="12" fill="black"/>
<path fill-rule="evenodd" clip-rule="evenodd" d="M43.2632 20.5743L26.8 26.2402V35.0111L27.7724 35.3456L26.3073 38.1698C25.9693 38.8201 25.942 39.5769 26.2293 40.2485C26.5192 40.9201 27.0938 41.4376 27.8101 41.6681L33.1193 43.3734C33.3858 43.4587 33.6601 43.5 33.9305 43.5C34.8938 43.5 35.8168 42.9813 36.2666 42.1167L37.9605 38.8515L43.2632 40.677C44.1082 40.969 45 40.3638 45 39.498V21.7533C45 20.8875 44.1082 20.2823 43.2632 20.5743ZM33.9409 40.9965L28.633 39.2912L30.2385 36.1951L35.4931 38.0044L33.9409 40.9965ZM24.2 35.0111H21.6C20.1661 35.0111 19 33.8872 19 32.5051V28.7462C19 27.3642 20.1661 26.2402 21.6 26.2402H24.2V35.0111Z" fill="#00FF00"/>
</svg>
