<svg width="16" height="17" viewBox="0 0 16 17" fill="none" xmlns="http://www.w3.org/2000/svg">
<path d="M8 16.5C3.5815 16.5 0 12.9185 0 8.5C0 4.0815 3.5815 0.5 8 0.5C12.4185 0.5 16 4.0815 16 8.5C16 12.9185 12.4185 16.5 8 16.5ZM6.058 7.702L8 5.76L9.943 7.703L11.073 6.573L8 3.5L4.928 6.572L6.058 7.702ZM3 8.5L4.13 9.63L5.26 8.5L4.13 7.37L3 8.5ZM6.058 9.298L4.9265 10.4265L4.928 10.428L8 13.5L11.073 10.427V10.4265L9.943 9.2965L8 11.24L6.058 9.298ZM10.74 8.5L11.87 9.63L13 8.5L11.87 7.37L10.74 8.5ZM9.146 8.499H9.1465L8 7.353L7.1525 8.2L7.055 8.2975L6.8545 8.4985L6.8525 8.5L6.8545 8.5015L7.9995 9.647L9.1465 8.5005L9.147 8.5L9.146 8.4995V8.499Z" fill="#F3BA2F"/>
</svg>
