<svg width="20" height="20" viewBox="0 0 20 20" fill="none" xmlns="http://www.w3.org/2000/svg">
<path d="M13.8533 11.6L16.1175 13.8634L9.99 19.9909L3.86333 13.8642L6.1275 11.6L9.99083 15.4834L13.8533 11.6ZM17.7175 7.7367L20 10L17.7375 12.2634L15.4733 10L17.7175 7.7367ZM9.99083 7.7367L12.2542 9.98003L9.99 12.2442L7.72667 10L9.99 7.73753L9.99083 7.7367ZM2.26333 7.7367L4.50833 10L2.265 12.2434L0 10L2.26333 7.7367ZM9.99167 0.00836182L16.1183 6.11669L13.8542 8.3792L9.99083 4.51586L6.12833 8.39919L3.86417 6.13586L9.99083 0.00919515L9.99167 0.00836182Z" fill="#F5A606"/>
</svg>
