<svg width="115" height="64" viewBox="0 0 115 64" fill="none" xmlns="http://www.w3.org/2000/svg">
<rect width="115" height="64" fill="#282828"/>
<path d="M21.4091 38H25.6136C28.3636 38 29.5 36.6591 29.5 34.9091C29.5 33.0682 28.2273 32.0682 27.1591 32V31.8864C28.1591 31.6136 29.0455 30.9545 29.0455 29.4545C29.0455 27.75 27.9091 26.3636 25.4773 26.3636H21.4091V38ZM22.8182 36.75V32.7045H25.6818C27.2045 32.7045 28.1591 33.7273 28.1591 34.9091C28.1591 35.9318 27.4545 36.75 25.6136 36.75H22.8182ZM22.8182 31.4773V27.6136H25.4773C27.0227 27.6136 27.7045 28.4318 27.7045 29.4545C27.7045 30.6818 26.7045 31.4773 25.4318 31.4773H22.8182ZM41.0426 26.3636H39.6562V35.5227H39.5426L33.179 26.3636H31.8153V38H33.2244V28.8636H33.3381L39.679 38H41.0426V26.3636ZM51.4986 26.3636V33.9545C51.4986 35.6591 50.3281 36.8864 48.3849 36.8864C46.4418 36.8864 45.2713 35.6591 45.2713 33.9545V26.3636H43.8622V34.0682C43.8622 36.4545 45.6463 38.2045 48.3849 38.2045C51.1236 38.2045 52.9077 36.4545 52.9077 34.0682V26.3636H51.4986ZM63.6761 30H65.1307C64.6989 27.75 62.8125 26.2045 60.358 26.2045C57.375 26.2045 55.267 28.5 55.267 32.1818C55.267 35.8636 57.358 38.1591 60.4489 38.1591C63.2216 38.1591 65.1989 36.3125 65.1989 33.4318V32.1818H60.767V33.4318H63.8352C63.7955 35.5227 62.4205 36.8409 60.4489 36.8409C58.2898 36.8409 56.6307 35.2045 56.6307 32.1818C56.6307 29.1591 58.2898 27.5227 60.358 27.5227C62.0398 27.5227 63.1818 28.4716 63.6761 30Z" fill="white"/>
<path fill-rule="evenodd" clip-rule="evenodd" d="M78.8518 28.7268C78.904 28.6744 78.9661 28.6328 79.0344 28.6045C79.1028 28.5761 79.176 28.5615 79.25 28.5615C79.324 28.5615 79.3973 28.5761 79.4656 28.6045C79.534 28.6328 79.596 28.6744 79.6483 28.7268L86 35.0797L92.3518 28.7268C92.4041 28.6745 92.4662 28.633 92.5345 28.6047C92.6028 28.5764 92.6761 28.5618 92.75 28.5618C92.824 28.5618 92.8972 28.5764 92.9656 28.6047C93.0339 28.633 93.096 28.6745 93.1483 28.7268C93.2006 28.7791 93.2421 28.8412 93.2704 28.9095C93.2987 28.9778 93.3132 29.0511 93.3132 29.125C93.3132 29.199 93.2987 29.2722 93.2704 29.3406C93.2421 29.4089 93.2006 29.471 93.1483 29.5233L86.3983 36.2733C86.346 36.3257 86.284 36.3672 86.2156 36.3956C86.1473 36.4239 86.074 36.4385 86 36.4385C85.926 36.4385 85.8528 36.4239 85.7844 36.3956C85.7161 36.3672 85.654 36.3257 85.6018 36.2733L78.8518 29.5233C78.7994 29.471 78.7578 29.409 78.7295 29.3406C78.7011 29.2723 78.6865 29.199 78.6865 29.125C78.6865 29.051 78.7011 28.9778 78.7295 28.9094C78.7578 28.8411 78.7994 28.779 78.8518 28.7268Z" fill="#919191"/>
</svg>
