<svg width="510" height="64" viewBox="0 0 510 64" fill="none" xmlns="http://www.w3.org/2000/svg">
<rect width="510" height="64" rx="16" fill="#1C1C1C"/>
<rect width="115" height="64" fill="#282828"/>
<path d="M21.4091 38H25.6136C28.3636 38 29.5 36.6591 29.5 34.9091C29.5 33.0682 28.2273 32.0682 27.1591 32V31.8864C28.1591 31.6136 29.0455 30.9545 29.0455 29.4545C29.0455 27.75 27.9091 26.3636 25.4773 26.3636H21.4091V38ZM22.8182 36.75V32.7045H25.6818C27.2045 32.7045 28.1591 33.7273 28.1591 34.9091C28.1591 35.9318 27.4545 36.75 25.6136 36.75H22.8182ZM22.8182 31.4773V27.6136H25.4773C27.0227 27.6136 27.7045 28.4318 27.7045 29.4545C27.7045 30.6818 26.7045 31.4773 25.4318 31.4773H22.8182ZM41.0426 26.3636H39.6562V35.5227H39.5426L33.179 26.3636H31.8153V38H33.2244V28.8636H33.3381L39.679 38H41.0426V26.3636ZM51.4986 26.3636V33.9545C51.4986 35.6591 50.3281 36.8864 48.3849 36.8864C46.4418 36.8864 45.2713 35.6591 45.2713 33.9545V26.3636H43.8622V34.0682C43.8622 36.4545 45.6463 38.2045 48.3849 38.2045C51.1236 38.2045 52.9077 36.4545 52.9077 34.0682V26.3636H51.4986ZM63.6761 30H65.1307C64.6989 27.75 62.8125 26.2045 60.358 26.2045C57.375 26.2045 55.267 28.5 55.267 32.1818C55.267 35.8636 57.358 38.1591 60.4489 38.1591C63.2216 38.1591 65.1989 36.3125 65.1989 33.4318V32.1818H60.767V33.4318H63.8352C63.7955 35.5227 62.4205 36.8409 60.4489 36.8409C58.2898 36.8409 56.6307 35.2045 56.6307 32.1818C56.6307 29.1591 58.2898 27.5227 60.358 27.5227C62.0398 27.5227 63.1818 28.4716 63.6761 30Z" fill="white"/>
<path fill-rule="evenodd" clip-rule="evenodd" d="M78.8518 28.7268C78.904 28.6744 78.9661 28.6328 79.0344 28.6045C79.1028 28.5761 79.176 28.5615 79.25 28.5615C79.324 28.5615 79.3973 28.5761 79.4656 28.6045C79.534 28.6328 79.596 28.6744 79.6483 28.7268L86 35.0797L92.3518 28.7268C92.4041 28.6745 92.4662 28.633 92.5345 28.6047C92.6028 28.5764 92.6761 28.5618 92.75 28.5618C92.824 28.5618 92.8972 28.5764 92.9656 28.6047C93.0339 28.633 93.096 28.6745 93.1483 28.7268C93.2006 28.7791 93.2421 28.8412 93.2704 28.9095C93.2987 28.9778 93.3132 29.0511 93.3132 29.125C93.3132 29.199 93.2987 29.2722 93.2704 29.3406C93.2421 29.4089 93.2006 29.471 93.1483 29.5233L86.3983 36.2733C86.346 36.3257 86.284 36.3672 86.2156 36.3956C86.1473 36.4239 86.074 36.4385 86 36.4385C85.926 36.4385 85.8528 36.4239 85.7844 36.3956C85.7161 36.3672 85.654 36.3257 85.6018 36.2733L78.8518 29.5233C78.7994 29.471 78.7578 29.409 78.7295 29.3406C78.7011 29.2723 78.6865 29.199 78.6865 29.125C78.6865 29.051 78.7011 28.9778 78.7295 28.9094C78.7578 28.8411 78.7994 28.779 78.8518 28.7268Z" fill="#919191"/>
<path d="M146.409 37H153.523V35.75H147.818V31.7955H153.068V30.5455H147.818V26.6136H153.432V25.3636H146.409V37ZM157.131 31.75C157.131 30.2273 158.074 29.3636 159.358 29.3636C160.602 29.3636 161.358 30.1761 161.358 31.5455V37H162.699V31.4545C162.699 29.2273 161.511 28.1591 159.744 28.1591C158.426 28.1591 157.608 28.75 157.199 29.6364H157.085V28.2727H155.79V37H157.131V31.75ZM168.945 28.2727H167.081V26.1818H165.74V28.2727H164.422V29.4091H165.74V34.8636C165.74 36.3864 166.967 37.1136 168.104 37.1136C168.604 37.1136 168.922 37.0227 169.104 36.9545L168.831 35.75C168.717 35.7727 168.536 35.8182 168.24 35.8182C167.649 35.8182 167.081 35.6364 167.081 34.5V29.4091H168.945V28.2727ZM174.527 37.1818C176.3 37.1818 177.595 36.2955 178.004 34.9773L176.709 34.6136C176.368 35.5227 175.578 35.9773 174.527 35.9773C172.953 35.9773 171.868 34.9602 171.805 33.0909H178.141V32.5227C178.141 29.2727 176.209 28.1591 174.391 28.1591C172.027 28.1591 170.459 30.0227 170.459 32.7045C170.459 35.3864 172.004 37.1818 174.527 37.1818ZM171.805 31.9318C171.896 30.5739 172.857 29.3636 174.391 29.3636C175.845 29.3636 176.777 30.4545 176.777 31.9318H171.805ZM180.18 37H181.521V31.4773C181.521 30.2955 182.453 29.4318 183.726 29.4318C184.084 29.4318 184.453 29.5 184.544 29.5227V28.1591C184.391 28.1477 184.038 28.1364 183.839 28.1364C182.794 28.1364 181.885 28.7273 181.567 29.5909H181.476V28.2727H180.18V37ZM193.202 37.2045C194.724 37.2045 195.52 36.3864 195.793 35.8182H195.861V37H197.202V31.25C197.202 28.4773 195.088 28.1591 193.974 28.1591C192.656 28.1591 191.156 28.6136 190.474 30.2045L191.747 30.6591C192.043 30.0227 192.741 29.3409 194.02 29.3409C195.253 29.3409 195.861 29.9943 195.861 31.1136V31.1591C195.861 31.8068 195.202 31.75 193.611 31.9545C191.991 32.1648 190.224 32.5227 190.224 34.5227C190.224 36.2273 191.543 37.2045 193.202 37.2045ZM193.406 36C192.338 36 191.565 35.5227 191.565 34.5909C191.565 33.5682 192.497 33.25 193.543 33.1136C194.111 33.0455 195.634 32.8864 195.861 32.6136V33.8409C195.861 34.9318 194.997 36 193.406 36ZM200.99 31.75C200.99 30.2273 201.933 29.3636 203.217 29.3636C204.462 29.3636 205.217 30.1761 205.217 31.5455V37H206.558V31.4545C206.558 29.2273 205.371 28.1591 203.604 28.1591C202.286 28.1591 201.467 28.75 201.058 29.6364H200.945V28.2727H199.649V37H200.99V31.75ZM216.077 37.2045C217.599 37.2045 218.395 36.3864 218.668 35.8182H218.736V37H220.077V31.25C220.077 28.4773 217.963 28.1591 216.849 28.1591C215.531 28.1591 214.031 28.6136 213.349 30.2045L214.622 30.6591C214.918 30.0227 215.616 29.3409 216.895 29.3409C218.128 29.3409 218.736 29.9943 218.736 31.1136V31.1591C218.736 31.8068 218.077 31.75 216.486 31.9545C214.866 32.1648 213.099 32.5227 213.099 34.5227C213.099 36.2273 214.418 37.2045 216.077 37.2045ZM216.281 36C215.213 36 214.44 35.5227 214.44 34.5909C214.44 33.5682 215.372 33.25 216.418 33.1136C216.986 33.0455 218.509 32.8864 218.736 32.6136V33.8409C218.736 34.9318 217.872 36 216.281 36ZM222.524 37H223.865V31.5455C223.865 30.267 224.797 29.3636 225.842 29.3636C226.859 29.3636 227.57 30.0284 227.57 31.0227V37H228.933V31.3182C228.933 30.1932 229.638 29.3636 230.865 29.3636C231.82 29.3636 232.638 29.8693 232.638 31.1591V37H233.979V31.1591C233.979 29.108 232.876 28.1591 231.32 28.1591C230.07 28.1591 229.155 28.733 228.706 29.6364H228.615C228.183 28.7045 227.422 28.1591 226.274 28.1591C225.138 28.1591 224.297 28.7045 223.933 29.6364H223.82V28.2727H222.524V37ZM239.976 37.1818C242.339 37.1818 243.93 35.3864 243.93 32.6818C243.93 29.9545 242.339 28.1591 239.976 28.1591C237.612 28.1591 236.021 29.9545 236.021 32.6818C236.021 35.3864 237.612 37.1818 239.976 37.1818ZM239.976 35.9773C238.18 35.9773 237.362 34.4318 237.362 32.6818C237.362 30.9318 238.18 29.3636 239.976 29.3636C241.771 29.3636 242.589 30.9318 242.589 32.6818C242.589 34.4318 241.771 35.9773 239.976 35.9773ZM251.477 33.4318C251.477 35.0682 250.227 35.8182 249.227 35.8182C248.114 35.8182 247.318 35 247.318 33.7273V28.2727H245.977V33.8182C245.977 36.0455 247.159 37.1136 248.795 37.1136C250.114 37.1136 250.977 36.4091 251.386 35.5227H251.477V37H252.818V28.2727H251.477V33.4318ZM256.615 31.75C256.615 30.2273 257.558 29.3636 258.842 29.3636C260.087 29.3636 260.842 30.1761 260.842 31.5455V37H262.183V31.4545C262.183 29.2273 260.996 28.1591 259.229 28.1591C257.911 28.1591 257.092 28.75 256.683 29.6364H256.57V28.2727H255.274V37H256.615V31.75ZM268.429 28.2727H266.565V26.1818H265.224V28.2727H263.906V29.4091H265.224V34.8636C265.224 36.3864 266.452 37.1136 267.588 37.1136C268.088 37.1136 268.406 37.0227 268.588 36.9545L268.315 35.75C268.202 35.7727 268.02 35.8182 267.724 35.8182C267.134 35.8182 266.565 35.6364 266.565 34.5V29.4091H268.429V28.2727Z" fill="#919191"/>
</svg>
