<svg width="87" height="41" viewBox="0 0 87 41" fill="none" xmlns="http://www.w3.org/2000/svg">
<rect x="1" y="1" width="85" height="39" rx="19.5" fill="#71C21B"/>
<path d="M32.2784 18.4375C31.9545 15.75 29.9205 14.2045 27.2273 14.2045C24.1534 14.2045 21.8068 16.375 21.8068 20.1818C21.8068 23.9773 24.1136 26.1591 27.2273 26.1591C30.2102 26.1591 32.0114 24.1761 32.2784 22.0341L29.7898 22.0227C29.5568 23.267 28.5795 23.983 27.267 23.983C25.5 23.983 24.3011 22.6705 24.3011 20.1818C24.3011 17.7614 25.483 16.3807 27.2841 16.3807C28.6307 16.3807 29.6023 17.1591 29.7898 18.4375H32.2784ZM36.4176 14.3636H33.9972V26H36.4176V14.3636ZM40.8452 26.1648C42.1349 26.1648 42.9702 25.6023 43.3963 24.7898H43.4645V26H45.7599V20.1136C45.7599 18.0341 43.9986 17.1591 42.0554 17.1591C39.9645 17.1591 38.5895 18.1591 38.2543 19.75L40.4929 19.9318C40.6577 19.3523 41.1747 18.9261 42.044 18.9261C42.8679 18.9261 43.3395 19.3409 43.3395 20.0568V20.0909C43.3395 20.6534 42.7429 20.7273 41.2259 20.875C39.4986 21.0341 37.9474 21.6136 37.9474 23.5625C37.9474 25.2898 39.1804 26.1648 40.8452 26.1648ZM41.5384 24.4943C40.794 24.4943 40.2599 24.1477 40.2599 23.483C40.2599 22.8011 40.8224 22.4659 41.6747 22.3466C42.2031 22.2727 43.0668 22.1477 43.3565 21.9545V22.8807C43.3565 23.7955 42.6009 24.4943 41.5384 24.4943ZM47.6378 26H50.0582V17.2727H47.6378V26ZM48.8537 16.1477C49.5753 16.1477 50.1662 15.5966 50.1662 14.9205C50.1662 14.25 49.5753 13.6989 48.8537 13.6989C48.1378 13.6989 47.5469 14.25 47.5469 14.9205C47.5469 15.5966 48.1378 16.1477 48.8537 16.1477ZM51.9972 26H54.4176V20.7614C54.4176 19.7955 55.0312 19.1534 55.8381 19.1534C56.6335 19.1534 57.1676 19.6989 57.1676 20.5568V26H59.5142V20.6705C59.5142 19.767 60.0312 19.1534 60.9119 19.1534C61.6847 19.1534 62.2642 19.6364 62.2642 20.608V26H64.679V20.1307C64.679 18.2386 63.554 17.1591 61.929 17.1591C60.6506 17.1591 59.6562 17.8125 59.2983 18.8125H59.2074C58.929 17.8011 58.0369 17.1591 56.8381 17.1591C55.6619 17.1591 54.7699 17.7841 54.4062 18.8125H54.304V17.2727H51.9972V26Z" fill="white"/>
<rect x="1" y="1" width="85" height="39" rx="19.5" stroke="#71C21B"/>
</svg>
