<svg width="10" height="18" viewBox="0 0 10 18" fill="none" xmlns="http://www.w3.org/2000/svg">
<path d="M1.0328 2.85579L1.03102 4.62496V13.3783C1.03102 14.0966 1.23406 14.7855 1.59545 15.2934C1.95685 15.8013 2.44701 16.0866 2.95811 16.0866H8.06695C7.97489 16.4522 7.80447 16.7687 7.57914 16.9926C7.35381 17.2164 7.08466 17.3366 6.80872 17.3366H2.95811C2.21112 17.3366 1.49473 16.9196 0.966537 16.1773C0.43834 15.4349 0.141602 14.4281 0.141602 13.3783V4.62496C0.141602 3.80829 0.51338 3.11246 1.0328 2.85579ZM5.55404 0.666626C5.90803 0.666626 6.24779 0.864126 6.49801 1.21663L9.23625 5.06663C9.48647 5.41829 9.627 5.89579 9.627 6.39246V13.3783C9.627 13.8756 9.48644 14.3525 9.23624 14.7041C8.98604 15.0557 8.6467 15.2533 8.29287 15.2533H2.95929C2.60546 15.2533 2.26612 15.0557 2.01592 14.7041C1.76572 14.3525 1.62516 13.8756 1.62516 13.3783V2.54163C1.62516 2.04435 1.76572 1.56743 2.01592 1.2158C2.26612 0.86417 2.60546 0.666626 2.95929 0.666626H5.55404ZM5.47814 1.91663H2.95929C2.84135 1.91663 2.72823 1.98247 2.64483 2.09968C2.56144 2.21689 2.51458 2.37587 2.51458 2.54163V13.3783C2.51458 13.7233 2.71381 14.0033 2.95929 14.0033H8.29287C8.41081 14.0033 8.52392 13.9374 8.60732 13.8202C8.69072 13.703 8.73758 13.5441 8.73758 13.3783V6.50246H6.81227C6.47431 6.50253 6.14893 6.32234 5.90184 5.99829C5.65476 5.67424 5.50439 5.23047 5.4811 4.75663L5.47814 4.62829V1.91663ZM6.36756 2.80079L6.36816 4.62829C6.36816 4.94496 6.53537 5.20579 6.75239 5.24746L6.81287 5.25329L8.11142 5.25246L6.36816 2.80079H6.36756Z" fill="white"/>
</svg>
