<svg width="14" height="18" viewBox="0 0 14 18" fill="none" xmlns="http://www.w3.org/2000/svg">
<path d="M1.58551 2.85567L1.58301 4.62484V13.3782C1.58301 14.0965 1.86835 14.7853 2.37626 15.2933C2.88417 15.8012 3.57305 16.0865 4.29134 16.0865H11.4713C11.342 16.4521 11.1024 16.7686 10.7858 16.9924C10.4691 17.2163 10.0908 17.3365 9.70301 17.3365H4.29134C3.24153 17.3365 2.23471 16.9195 1.49238 16.1771C0.750045 15.4348 0.333008 14.428 0.333008 13.3782V4.62484C0.333008 3.80817 0.855508 3.11234 1.58551 2.85567ZM7.93967 0.666504C8.43717 0.666504 8.91467 0.864004 9.26634 1.2165L13.1147 5.0665C13.4663 5.41817 13.6638 5.89567 13.6638 6.39234V13.3782C13.6638 13.8755 13.4663 14.3524 13.1147 14.704C12.763 15.0556 12.2861 15.2532 11.7888 15.2532H4.29301C3.79573 15.2532 3.31881 15.0556 2.96718 14.704C2.61555 14.3524 2.41801 13.8755 2.41801 13.3782V2.5415C2.41801 2.04422 2.61555 1.56731 2.96718 1.21568C3.31881 0.864048 3.79573 0.666504 4.29301 0.666504H7.93967ZM7.83301 1.9165H4.29301C4.12725 1.9165 3.96828 1.98235 3.85107 2.09956C3.73386 2.21677 3.66801 2.37574 3.66801 2.5415V13.3782C3.66801 13.7232 3.94801 14.0032 4.29301 14.0032H11.7888C11.9546 14.0032 12.1136 13.9373 12.2308 13.8201C12.348 13.7029 12.4138 13.5439 12.4138 13.3782V6.50234H9.70801C9.23304 6.50241 8.77574 6.32222 8.42848 5.99817C8.08123 5.67411 7.86989 5.23035 7.83717 4.7565L7.83301 4.62817V1.9165ZM9.08301 2.80067L9.08384 4.62817C9.08384 4.94484 9.31884 5.20567 9.62384 5.24734L9.70884 5.25317L11.5338 5.25234L9.08384 2.80067H9.08301Z" fill="black"/>
</svg>
