<svg width="23" height="24" viewBox="0 0 23 24" fill="none" xmlns="http://www.w3.org/2000/svg">
<path d="M9 0.417936C9.14642 0.595855 9.23612 0.813594 9.25751 1.04302C9.2789 1.27245 9.231 1.50302 9.12 1.70494C8.25279 3.29715 7.7999 5.08188 7.803 6.89494C7.803 12.9264 12.72 17.8104 18.78 17.8104C19.5705 17.8104 20.34 17.7279 21.0795 17.5704C21.3062 17.5213 21.5423 17.5401 21.7584 17.6244C21.9745 17.7087 22.1609 17.8548 22.2945 18.0444C22.4355 18.2416 22.5074 18.4798 22.499 18.7221C22.4905 18.9643 22.4023 19.197 22.248 19.3839C21.0715 20.8291 19.5874 21.9935 17.9038 22.7922C16.2201 23.591 14.3795 24.0039 12.516 24.0009C5.601 24.0009 0 18.4299 0 11.5659C0 6.39994 3.171 1.96894 7.686 0.090936C7.91091 -0.00411619 8.16058 -0.0236252 8.39752 0.0353395C8.63447 0.0943043 8.84588 0.228559 9 0.417936ZM7.287 1.96744C5.55091 2.89868 4.09955 4.2829 3.0872 5.97298C2.07484 7.66306 1.5393 9.59585 1.5375 11.5659C1.5375 17.5959 6.456 22.4799 12.516 22.4799C13.9672 22.4825 15.4044 22.1971 16.7446 21.6405C18.0847 21.0838 19.3012 20.2669 20.3235 19.2369C19.818 19.2999 19.3035 19.3314 18.78 19.3314C11.865 19.3314 6.2655 13.7604 6.2655 6.89644C6.2655 5.14594 6.6285 3.47944 7.287 1.96744Z" fill="#919191"/>
</svg>
