<svg width="10" height="7" viewBox="0 0 10 7" fill="none" xmlns="http://www.w3.org/2000/svg">
<path fill-rule="evenodd" clip-rule="evenodd" d="M0.23517 0.984438C0.270005 0.949515 0.311386 0.921808 0.356945 0.902903C0.402504 0.883998 0.451345 0.874268 0.50067 0.874268C0.549996 0.874268 0.598837 0.883998 0.644396 0.902903C0.689955 0.921808 0.731336 0.949515 0.766171 0.984438L5.00067 5.21969L9.23517 0.984438C9.27004 0.949572 9.31143 0.921914 9.35698 0.903045C9.40254 0.884176 9.45136 0.874464 9.50067 0.874464C9.54998 0.874464 9.5988 0.884176 9.64436 0.903045C9.68991 0.921914 9.73131 0.949572 9.76617 0.984438C9.80104 1.0193 9.8287 1.0607 9.84756 1.10625C9.86643 1.1518 9.87615 1.20063 9.87615 1.24994C9.87615 1.29925 9.86643 1.34807 9.84756 1.39363C9.8287 1.43918 9.80104 1.48057 9.76617 1.51544L5.26617 6.01544C5.23134 6.05036 5.18995 6.07807 5.1444 6.09697C5.09884 6.11588 5.05 6.12561 5.00067 6.12561C4.95135 6.12561 4.9025 6.11588 4.85695 6.09697C4.81139 6.07807 4.77001 6.05036 4.73517 6.01544L0.23517 1.51544C0.200248 1.4806 0.172541 1.43922 0.153636 1.39366C0.134731 1.3481 0.125 1.29926 0.125 1.24994C0.125 1.20061 0.134731 1.15177 0.153636 1.10621C0.172541 1.06065 0.200248 1.01927 0.23517 0.984438Z" fill="#919191"/>
</svg>
