<svg width="10" height="6" viewBox="0 0 10 6" fill="none" xmlns="http://www.w3.org/2000/svg">
<path fill-rule="evenodd" clip-rule="evenodd" d="M0.23517 0.484682C0.270005 0.449759 0.311386 0.422052 0.356945 0.403147C0.402504 0.384243 0.451345 0.374512 0.50067 0.374512C0.549996 0.374512 0.598837 0.384243 0.644396 0.403147C0.689955 0.422052 0.731336 0.449759 0.76617 0.484682L5.00067 4.71993L9.23517 0.484682C9.27004 0.449816 9.31143 0.422159 9.35698 0.403289C9.40254 0.38442 9.45136 0.374708 9.50067 0.374708C9.54998 0.374708 9.5988 0.38442 9.64436 0.403289C9.68991 0.422159 9.7313 0.449816 9.76617 0.484682C9.80104 0.519548 9.82869 0.56094 9.84756 0.606494C9.86643 0.652049 9.87614 0.700874 9.87614 0.750182C9.87614 0.79949 9.86643 0.848315 9.84756 0.89387C9.82869 0.939424 9.80104 0.980816 9.76617 1.01568L5.26617 5.51568C5.23134 5.5506 5.18995 5.57831 5.14439 5.59722C5.09884 5.61612 5.05 5.62585 5.00067 5.62585C4.95134 5.62585 4.9025 5.61612 4.85695 5.59722C4.81139 5.57831 4.77 5.5506 4.73517 5.51568L0.23517 1.01568C0.200248 0.980848 0.172541 0.939466 0.153636 0.893907C0.134731 0.848348 0.125 0.799507 0.125 0.750182C0.125 0.700856 0.134731 0.652016 0.153636 0.606457C0.172541 0.560898 0.200248 0.519516 0.23517 0.484682Z" fill="black"/>
</svg>
