<svg width="16" height="20" viewBox="0 0 16 20" fill="none" xmlns="http://www.w3.org/2000/svg">
<path d="M8.96875 1.4715L8.96875 19.1408C8.96875 19.2526 9.06016 19.344 9.17188 19.344H10.6953C10.807 19.344 10.8984 19.2526 10.8984 19.1408L10.8984 3.77443L15.5449 7.4383C15.677 7.5424 15.875 7.44845 15.875 7.27834V5.43752C15.875 5.3131 15.8191 5.19631 15.7201 5.11759L10.284 0.831657C9.75078 0.412712 8.96875 0.791031 8.96875 1.4715ZM4.97656 0.859587L4.97656 16.226L0.330078 12.5621C0.198047 12.458 0 12.552 0 12.7221L0 14.5629C0 14.6873 0.0558595 14.8041 0.154883 14.8828L5.59102 19.1688C6.12422 19.5877 6.90625 19.2094 6.90625 18.5315L6.90625 0.859587C6.90625 0.747868 6.81484 0.656462 6.70313 0.656462H5.17969C5.06797 0.656462 4.97656 0.747868 4.97656 0.859587Z" fill="black"/>
</svg>
