<svg width="20" height="16" viewBox="0 0 20 16" fill="none" xmlns="http://www.w3.org/2000/svg">
<path d="M18.529 8.96875H0.859652C0.747934 8.96875 0.656527 9.06016 0.656527 9.17188V10.6953C0.656527 10.807 0.747934 10.8984 0.859652 10.8984H16.2261L12.5622 15.5449C12.4581 15.677 12.552 15.875 12.7222 15.875H14.563C14.6874 15.875 14.8042 15.8191 14.8829 15.7201L19.1688 10.284C19.5878 9.75078 19.2095 8.96875 18.529 8.96875ZM19.1409 4.97656H3.7745L7.43836 0.330078C7.54246 0.198047 7.44852 0 7.2784 0L5.43758 0C5.31317 0 5.19637 0.0558595 5.11766 0.154883L0.831723 5.59102C0.412777 6.12422 0.791098 6.90625 1.46903 6.90625H19.1409C19.2526 6.90625 19.344 6.81484 19.344 6.70312V5.17969C19.344 5.06797 19.2526 4.97656 19.1409 4.97656Z" fill="#919191"/>
</svg>
