<svg width="26" height="26" viewBox="0 0 26 26" fill="none" xmlns="http://www.w3.org/2000/svg">
<path d="M13.9688 4.47126L13.9688 22.1406C13.9688 22.2523 14.0602 22.3437 14.1719 22.3437H15.6953C15.807 22.3437 15.8984 22.2523 15.8984 22.1406L15.8984 6.77419L20.5449 10.4381C20.677 10.5422 20.875 10.4482 20.875 10.2781V8.43727C20.875 8.31286 20.8191 8.19606 20.7201 8.11735L15.284 3.83141C14.7508 3.41247 13.9688 3.79079 13.9688 4.47126ZM9.97656 3.85934V19.2257L5.33008 15.5619C5.19805 15.4578 5 15.5517 5 15.7218V17.5627C5 17.6871 5.05586 17.8039 5.15488 17.8826L10.591 22.1685C11.1242 22.5875 11.9062 22.2091 11.9062 21.5312V3.85934C11.9062 3.74762 11.8148 3.65622 11.7031 3.65622H10.1797C10.068 3.65622 9.97656 3.74762 9.97656 3.85934Z" fill="white"/>
</svg>
