<svg width="20" height="20" viewBox="0 0 20 20" fill="none" xmlns="http://www.w3.org/2000/svg">
<path d="M17.207 2.22852L10.9609 6.86756L12.116 4.13059L17.207 2.22852Z" fill="#E2761B" stroke="#E2761B" stroke-linecap="round" stroke-linejoin="round"/>
<path d="M2.78711 2.22852L8.98296 6.9115L7.88441 4.13059L2.78711 2.22852Z" fill="#E4761B" stroke="#E4761B" stroke-linecap="round" stroke-linejoin="round"/>
<path d="M14.9589 12.9818L13.2954 15.5305L16.8547 16.5097L17.878 13.0383L14.9589 12.9818Z" fill="#E4761B" stroke="#E4761B" stroke-linecap="round" stroke-linejoin="round"/>
<path d="M2.12793 13.0383L3.14488 16.5097L6.7042 15.5305L5.04067 12.9818L2.12793 13.0383Z" fill="#E4761B" stroke="#E4761B" stroke-linecap="round" stroke-linejoin="round"/>
<path d="M6.50307 8.67541L5.51123 10.1757L9.04544 10.3327L8.91989 6.53479L6.50307 8.67541Z" fill="#E4761B" stroke="#E4761B" stroke-linecap="round" stroke-linejoin="round"/>
<path d="M13.4898 8.67552L11.0416 6.49097L10.96 10.3328L14.4879 10.1758L13.4898 8.67552Z" fill="#E4761B" stroke="#E4761B" stroke-linecap="round" stroke-linejoin="round"/>
<path d="M6.7041 15.5304L8.82588 14.4946L6.99286 13.0634L6.7041 15.5304Z" fill="#E4761B" stroke="#E4761B" stroke-linecap="round" stroke-linejoin="round"/>
<path d="M11.1675 14.4946L13.2955 15.5304L13.0005 13.0634L11.1675 14.4946Z" fill="#E4761B" stroke="#E4761B" stroke-linecap="round" stroke-linejoin="round"/>
<path d="M13.296 15.5305L11.168 14.4947L11.3375 15.882L11.3186 16.4658L13.296 15.5305Z" fill="#D7C1B3" stroke="#D7C1B3" stroke-linecap="round" stroke-linejoin="round"/>
<path d="M6.70459 15.5305L8.68199 16.4658L8.66944 15.882L8.82637 14.4947L6.70459 15.5305Z" fill="#D7C1B3" stroke="#D7C1B3" stroke-linecap="round" stroke-linejoin="round"/>
<path d="M8.71311 12.1468L6.94287 11.6258L8.19209 11.0546L8.71311 12.1468Z" fill="#233447" stroke="#233447" stroke-linecap="round" stroke-linejoin="round"/>
<path d="M11.2808 12.1468L11.8018 11.0546L13.0573 11.6258L11.2808 12.1468Z" fill="#233447" stroke="#233447" stroke-linecap="round" stroke-linejoin="round"/>
<path d="M6.70454 15.5305L7.00586 12.9818L5.04102 13.0383L6.70454 15.5305Z" fill="#CD6116" stroke="#CD6116" stroke-linecap="round" stroke-linejoin="round"/>
<path d="M12.9946 12.9818L13.2959 15.5305L14.9595 13.0383L12.9946 12.9818Z" fill="#CD6116" stroke="#CD6116" stroke-linecap="round" stroke-linejoin="round"/>
<path d="M14.4889 10.1757L10.9609 10.3327L11.2874 12.1468L11.8084 11.0546L13.0639 11.6258L14.4889 10.1757Z" fill="#CD6116" stroke="#CD6116" stroke-linecap="round" stroke-linejoin="round"/>
<path d="M6.94298 11.6258L8.19847 11.0546L8.71323 12.1468L9.04593 10.3327L5.51172 10.1757L6.94298 11.6258Z" fill="#CD6116" stroke="#CD6116" stroke-linecap="round" stroke-linejoin="round"/>
<path d="M5.51172 10.1757L6.9932 13.0634L6.94298 11.6258L5.51172 10.1757Z" fill="#E4751F" stroke="#E4751F" stroke-linecap="round" stroke-linejoin="round"/>
<path d="M13.0638 11.6258L13.001 13.0634L14.4887 10.1757L13.0638 11.6258Z" fill="#E4751F" stroke="#E4751F" stroke-linecap="round" stroke-linejoin="round"/>
<path d="M9.04608 10.3327L8.71338 12.1469L9.12769 14.2875L9.22185 11.4689L9.04608 10.3327Z" fill="#E4751F" stroke="#E4751F" stroke-linecap="round" stroke-linejoin="round"/>
<path d="M10.9605 10.3327L10.791 11.4626L10.8663 14.2875L11.2869 12.1469L10.9605 10.3327Z" fill="#E4751F" stroke="#E4751F" stroke-linecap="round" stroke-linejoin="round"/>
<path d="M11.2868 12.1469L10.8662 14.2876L11.1675 14.4947L13.0005 13.0635L13.0633 11.6259L11.2868 12.1469Z" fill="#F6851B" stroke="#F6851B" stroke-linecap="round" stroke-linejoin="round"/>
<path d="M6.94287 11.6259L6.99309 13.0635L8.82611 14.4947L9.12743 14.2876L8.71311 12.1469L6.94287 11.6259Z" fill="#F6851B" stroke="#F6851B" stroke-linecap="round" stroke-linejoin="round"/>
<path d="M11.3185 16.4658L11.3374 15.882L11.1804 15.7439H8.81382L8.66944 15.882L8.68199 16.4658L6.70459 15.5305L7.39511 16.0954L8.79499 17.0684H11.1993L12.6054 16.0954L13.2959 15.5305L11.3185 16.4658Z" fill="#C0AD9E" stroke="#C0AD9E" stroke-linecap="round" stroke-linejoin="round"/>
<path d="M11.1679 14.4946L10.8665 14.2875H9.12769L8.82637 14.4946L8.66943 15.882L8.81381 15.7438H11.1804L11.3374 15.882L11.1679 14.4946Z" fill="#161616" stroke="#161616" stroke-linecap="round" stroke-linejoin="round"/>
<path d="M17.4705 7.16888L18.0041 4.60768L17.2069 2.22852L11.168 6.71063L13.4906 8.67547L16.7737 9.63592L17.5019 8.78847L17.1881 8.56248L17.6903 8.10422L17.3011 7.8029L17.8033 7.41998L17.4705 7.16888Z" fill="#763D16" stroke="#763D16" stroke-linecap="round" stroke-linejoin="round"/>
<path d="M1.99658 4.60768L2.53017 7.16888L2.19118 7.41998L2.69338 7.8029L2.31046 8.10422L2.81265 8.56248L2.49878 8.78847L3.22069 9.63592L6.5038 8.67547L8.82646 6.71063L2.78754 2.22852L1.99658 4.60768Z" fill="#763D16" stroke="#763D16" stroke-linecap="round" stroke-linejoin="round"/>
<path d="M16.7737 9.63593L13.4906 8.67548L14.4887 10.1758L13.001 13.0634L14.9595 13.0383H17.8786L16.7737 9.63593Z" fill="#F6851B" stroke="#F6851B" stroke-linecap="round" stroke-linejoin="round"/>
<path d="M6.50332 8.67548L3.22021 9.63593L2.12793 13.0383H5.04067L6.99296 13.0634L5.51148 10.1758L6.50332 8.67548Z" fill="#F6851B" stroke="#F6851B" stroke-linecap="round" stroke-linejoin="round"/>
<path d="M10.9607 10.3327L11.1679 6.71059L12.1221 4.13055H7.88477L8.82639 6.71059L9.0461 10.3327L9.12143 11.4752L9.1277 14.2875H10.8666L10.8791 11.4752L10.9607 10.3327Z" fill="#F6851B" stroke="#F6851B" stroke-linecap="round" stroke-linejoin="round"/>
</svg>
