<svg width="395" height="24" viewBox="0 0 395 24" fill="none" xmlns="http://www.w3.org/2000/svg">
<path d="M8.592 5.8C8.816 5.8 8.99733 5.86933 9.136 6.008C9.28533 6.136 9.36 6.312 9.36 6.536C9.36 6.76 9.28533 6.936 9.136 7.064C8.99733 7.192 8.816 7.256 8.592 7.256H5.744V16.232C5.744 16.4453 5.664 16.6267 5.504 16.776C5.35467 16.9253 5.16267 17 4.928 17C4.69333 17 4.496 16.9253 4.336 16.776C4.18667 16.6267 4.112 16.4453 4.112 16.232V7.256H1.28C1.056 7.256 0.869333 7.192 0.72 7.064C0.581333 6.92533 0.512 6.744 0.512 6.52C0.512 6.30667 0.581333 6.136 0.72 6.008C0.869333 5.86933 1.056 5.8 1.28 5.8H8.592ZM16.4491 12.488C16.4385 12.68 16.3585 12.8453 16.2091 12.984C16.0598 13.112 15.8838 13.176 15.6811 13.176H10.0491C10.1238 13.9547 10.4171 14.5787 10.9291 15.048C11.4518 15.5173 12.0865 15.752 12.8331 15.752C13.3451 15.752 13.7611 15.6773 14.0811 15.528C14.4011 15.3787 14.6838 15.1867 14.9291 14.952C15.0891 14.856 15.2438 14.808 15.3931 14.808C15.5745 14.808 15.7238 14.872 15.8411 15C15.9691 15.128 16.0331 15.2773 16.0331 15.448C16.0331 15.672 15.9265 15.8747 15.7131 16.056C15.4038 16.3653 14.9931 16.6267 14.4811 16.84C13.9691 17.0533 13.4465 17.16 12.9131 17.16C12.0491 17.16 11.2865 16.9787 10.6251 16.616C9.97446 16.2533 9.46779 15.7467 9.10513 15.096C8.75313 14.4453 8.57713 13.7093 8.57713 12.888C8.57713 11.992 8.75846 11.208 9.12113 10.536C9.49446 9.85333 9.97979 9.33067 10.5771 8.968C11.1851 8.60533 11.8358 8.424 12.5291 8.424C13.2118 8.424 13.8518 8.6 14.4491 8.952C15.0465 9.304 15.5265 9.78933 15.8891 10.408C16.2518 11.0267 16.4385 11.72 16.4491 12.488ZM12.5291 9.832C11.9318 9.832 11.4145 10.0027 10.9771 10.344C10.5398 10.6747 10.2518 11.192 10.1131 11.896H14.8331V11.768C14.7798 11.2027 14.5238 10.7387 14.0651 10.376C13.6171 10.0133 13.1051 9.832 12.5291 9.832ZM25.0766 8.504C25.3006 8.504 25.482 8.57867 25.6206 8.728C25.77 8.86667 25.8446 9.05333 25.8446 9.288V16.232C25.8446 16.4453 25.77 16.6267 25.6206 16.776C25.482 16.9253 25.3006 17 25.0766 17C24.8526 17 24.6713 16.9307 24.5326 16.792C24.394 16.6427 24.3246 16.456 24.3246 16.232V15.816C24.0473 16.1893 23.6686 16.5093 23.1886 16.776C22.7086 17.032 22.1913 17.16 21.6366 17.16C20.9113 17.16 20.25 16.9733 19.6526 16.6C19.066 16.2267 18.602 15.7093 18.2606 15.048C17.93 14.376 17.7646 13.624 17.7646 12.792C17.7646 11.96 17.93 11.2133 18.2606 10.552C18.602 9.88 19.066 9.35733 19.6526 8.984C20.2393 8.61067 20.8846 8.424 21.5886 8.424C22.154 8.424 22.6766 8.54133 23.1566 8.776C23.6473 9.01067 24.0366 9.30933 24.3246 9.672V9.288C24.3246 9.064 24.394 8.87733 24.5326 8.728C24.6713 8.57867 24.8526 8.504 25.0766 8.504ZM21.8126 15.752C22.314 15.752 22.7566 15.624 23.1406 15.368C23.5353 15.112 23.8393 14.76 24.0526 14.312C24.2766 13.864 24.3886 13.3573 24.3886 12.792C24.3886 12.2373 24.2766 11.736 24.0526 11.288C23.8393 10.84 23.5353 10.488 23.1406 10.232C22.7566 9.96533 22.314 9.832 21.8126 9.832C21.3113 9.832 20.8633 9.96 20.4686 10.216C20.0846 10.472 19.7806 10.824 19.5566 11.272C19.3433 11.72 19.2366 12.2267 19.2366 12.792C19.2366 13.3573 19.3433 13.864 19.5566 14.312C19.7806 14.76 20.0846 15.112 20.4686 15.368C20.8633 15.624 21.3113 15.752 21.8126 15.752ZM37.7208 8.472C39.5874 8.472 40.5208 9.63467 40.5208 11.96V16.232C40.5208 16.456 40.4514 16.6427 40.3128 16.792C40.1741 16.9307 39.9928 17 39.7688 17C39.5448 17 39.3581 16.9253 39.2088 16.776C39.0701 16.6267 39.0008 16.4453 39.0008 16.232V11.976C39.0008 10.5787 38.4141 9.88 37.2408 9.88C36.8248 9.88 36.4461 9.976 36.1048 10.168C35.7741 10.3493 35.5128 10.6 35.3208 10.92C35.1394 11.24 35.0487 11.592 35.0487 11.976V16.232C35.0487 16.4453 34.9741 16.6267 34.8248 16.776C34.6861 16.9253 34.5048 17 34.2808 17C34.0568 17 33.8754 16.9307 33.7368 16.792C33.5981 16.6427 33.5288 16.456 33.5288 16.232V11.96C33.5288 11.3307 33.3954 10.8293 33.1288 10.456C32.8621 10.072 32.4194 9.88 31.8008 9.88C31.1714 9.88 30.6488 10.0827 30.2328 10.488C29.8274 10.8827 29.6248 11.3733 29.6248 11.96V16.232C29.6248 16.4453 29.5501 16.6267 29.4008 16.776C29.2621 16.9253 29.0808 17 28.8568 17C28.6328 17 28.4514 16.9307 28.3128 16.792C28.1741 16.6427 28.1048 16.456 28.1048 16.232V9.384C28.1048 9.17067 28.1741 8.98933 28.3128 8.84C28.4621 8.69067 28.6434 8.616 28.8568 8.616C29.0808 8.616 29.2621 8.69067 29.4008 8.84C29.5501 8.98933 29.6248 9.17067 29.6248 9.384V9.944C29.9021 9.528 30.2701 9.18133 30.7288 8.904C31.1981 8.616 31.7048 8.472 32.2488 8.472C33.5714 8.472 34.4301 9.05867 34.8248 10.232C35.0594 9.784 35.4488 9.37867 35.9928 9.016C36.5368 8.65333 37.1128 8.472 37.7208 8.472Z" fill="#919191"/>
<path d="M83.312 6.456C83.568 6.59467 83.696 6.808 83.696 7.096C83.696 7.288 83.632 7.464 83.504 7.624C83.376 7.79467 83.2 7.88 82.976 7.88C82.8267 7.88 82.6827 7.84267 82.544 7.768C81.8827 7.39467 81.168 7.208 80.4 7.208C79.6 7.208 78.8907 7.384 78.272 7.736C77.664 8.088 77.1893 8.584 76.848 9.224C76.5067 9.85333 76.336 10.5787 76.336 11.4C76.336 12.2853 76.512 13.048 76.864 13.688C77.216 14.328 77.7013 14.8187 78.32 15.16C78.9387 15.4907 79.632 15.656 80.4 15.656C81.1893 15.656 81.904 15.464 82.544 15.08C82.672 15.016 82.8107 14.984 82.96 14.984C83.1947 14.984 83.3813 15.0747 83.52 15.256C83.648 15.416 83.712 15.5867 83.712 15.768C83.712 15.896 83.6747 16.0187 83.6 16.136C83.536 16.2427 83.4453 16.328 83.328 16.392C82.912 16.6267 82.4427 16.8133 81.92 16.952C81.408 17.0907 80.9013 17.16 80.4 17.16C79.3653 17.16 78.4107 16.9307 77.536 16.472C76.672 16.0133 75.9787 15.3467 75.456 14.472C74.944 13.5973 74.688 12.5733 74.688 11.4C74.688 10.3227 74.9333 9.352 75.424 8.488C75.9253 7.61333 76.608 6.93067 77.472 6.44C78.3467 5.93867 79.3227 5.688 80.4 5.688C81.4347 5.688 82.4053 5.944 83.312 6.456ZM93.2751 12.808C93.2751 13.64 93.0885 14.3867 92.7151 15.048C92.3418 15.7093 91.8298 16.2267 91.1791 16.6C90.5391 16.9733 89.8298 17.16 89.0511 17.16C88.2725 17.16 87.5578 16.9733 86.9071 16.6C86.2671 16.2267 85.7605 15.7093 85.3871 15.048C85.0138 14.3867 84.8271 13.64 84.8271 12.808C84.8271 11.976 85.0138 11.224 85.3871 10.552C85.7605 9.88 86.2671 9.35733 86.9071 8.984C87.5578 8.61067 88.2725 8.424 89.0511 8.424C89.8298 8.424 90.5391 8.61067 91.1791 8.984C91.8298 9.35733 92.3418 9.88 92.7151 10.552C93.0885 11.224 93.2751 11.976 93.2751 12.808ZM91.7551 12.808C91.7551 12.232 91.6325 11.72 91.3871 11.272C91.1525 10.8133 90.8271 10.4613 90.4111 10.216C90.0058 9.96 89.5525 9.832 89.0511 9.832C88.5498 9.832 88.0911 9.96 87.6751 10.216C87.2698 10.4613 86.9445 10.8133 86.6991 11.272C86.4645 11.72 86.3471 12.232 86.3471 12.808C86.3471 13.3733 86.4645 13.88 86.6991 14.328C86.9445 14.776 87.2698 15.128 87.6751 15.384C88.0911 15.6293 88.5498 15.752 89.0511 15.752C89.5525 15.752 90.0058 15.6293 90.4111 15.384C90.8271 15.128 91.1525 14.776 91.3871 14.328C91.6325 13.88 91.7551 13.3733 91.7551 12.808ZM104.658 8.472C106.525 8.472 107.458 9.63467 107.458 11.96V16.232C107.458 16.456 107.389 16.6427 107.25 16.792C107.112 16.9307 106.93 17 106.706 17C106.482 17 106.296 16.9253 106.146 16.776C106.008 16.6267 105.938 16.4453 105.938 16.232V11.976C105.938 10.5787 105.352 9.88 104.178 9.88C103.762 9.88 103.384 9.976 103.042 10.168C102.712 10.3493 102.45 10.6 102.258 10.92C102.077 11.24 101.986 11.592 101.986 11.976V16.232C101.986 16.4453 101.912 16.6267 101.762 16.776C101.624 16.9253 101.442 17 101.218 17C100.994 17 100.813 16.9307 100.674 16.792C100.536 16.6427 100.466 16.456 100.466 16.232V11.96C100.466 11.3307 100.333 10.8293 100.066 10.456C99.7996 10.072 99.3569 9.88 98.7383 9.88C98.1089 9.88 97.5863 10.0827 97.1703 10.488C96.7649 10.8827 96.5623 11.3733 96.5623 11.96V16.232C96.5623 16.4453 96.4876 16.6267 96.3383 16.776C96.1996 16.9253 96.0183 17 95.7943 17C95.5703 17 95.3889 16.9307 95.2503 16.792C95.1116 16.6427 95.0423 16.456 95.0423 16.232V9.384C95.0423 9.17067 95.1116 8.98933 95.2503 8.84C95.3996 8.69067 95.5809 8.616 95.7943 8.616C96.0183 8.616 96.1996 8.69067 96.3383 8.84C96.4876 8.98933 96.5623 9.17067 96.5623 9.384V9.944C96.8396 9.528 97.2076 9.18133 97.6663 8.904C98.1356 8.616 98.6423 8.472 99.1863 8.472C100.509 8.472 101.368 9.05867 101.762 10.232C101.997 9.784 102.386 9.37867 102.93 9.016C103.474 8.65333 104.05 8.472 104.658 8.472ZM113.938 8.472C114.663 8.472 115.319 8.65867 115.906 9.032C116.492 9.39467 116.951 9.90667 117.282 10.568C117.623 11.2293 117.794 11.976 117.794 12.808C117.794 13.64 117.623 14.3867 117.282 15.048C116.951 15.6987 116.492 16.2107 115.906 16.584C115.319 16.9573 114.674 17.144 113.97 17.144C113.415 17.144 112.898 17.0213 112.418 16.776C111.938 16.5307 111.548 16.232 111.25 15.88V19.432C111.25 19.6453 111.175 19.8267 111.026 19.976C110.887 20.1253 110.706 20.2 110.482 20.2C110.268 20.2 110.087 20.1253 109.938 19.976C109.799 19.8373 109.73 19.656 109.73 19.432V9.368C109.73 9.144 109.799 8.95733 109.938 8.808C110.076 8.65867 110.258 8.584 110.482 8.584C110.706 8.584 110.887 8.65867 111.026 8.808C111.175 8.95733 111.25 9.144 111.25 9.368V9.832C111.506 9.45867 111.879 9.13867 112.37 8.872C112.86 8.60533 113.383 8.472 113.938 8.472ZM113.762 15.736C114.252 15.736 114.695 15.608 115.09 15.352C115.484 15.096 115.788 14.7493 116.002 14.312C116.226 13.864 116.338 13.3627 116.338 12.808C116.338 12.2533 116.226 11.7573 116.002 11.32C115.788 10.872 115.484 10.52 115.09 10.264C114.695 10.008 114.252 9.88 113.762 9.88C113.26 9.88 112.812 10.008 112.418 10.264C112.023 10.5093 111.714 10.856 111.49 11.304C111.276 11.752 111.17 12.2533 111.17 12.808C111.17 13.3627 111.276 13.864 111.49 14.312C111.714 14.76 112.023 15.112 112.418 15.368C112.812 15.6133 113.26 15.736 113.762 15.736ZM126.358 8.504C126.582 8.504 126.763 8.57867 126.902 8.728C127.051 8.86667 127.126 9.05333 127.126 9.288V16.232C127.126 16.4453 127.051 16.6267 126.902 16.776C126.763 16.9253 126.582 17 126.358 17C126.134 17 125.953 16.9307 125.814 16.792C125.675 16.6427 125.606 16.456 125.606 16.232V15.816C125.329 16.1893 124.95 16.5093 124.47 16.776C123.99 17.032 123.473 17.16 122.918 17.16C122.193 17.16 121.531 16.9733 120.934 16.6C120.347 16.2267 119.883 15.7093 119.542 15.048C119.211 14.376 119.046 13.624 119.046 12.792C119.046 11.96 119.211 11.2133 119.542 10.552C119.883 9.88 120.347 9.35733 120.934 8.984C121.521 8.61067 122.166 8.424 122.87 8.424C123.435 8.424 123.958 8.54133 124.438 8.776C124.929 9.01067 125.318 9.30933 125.606 9.672V9.288C125.606 9.064 125.675 8.87733 125.814 8.728C125.953 8.57867 126.134 8.504 126.358 8.504ZM123.094 15.752C123.595 15.752 124.038 15.624 124.422 15.368C124.817 15.112 125.121 14.76 125.334 14.312C125.558 13.864 125.67 13.3573 125.67 12.792C125.67 12.2373 125.558 11.736 125.334 11.288C125.121 10.84 124.817 10.488 124.422 10.232C124.038 9.96533 123.595 9.832 123.094 9.832C122.593 9.832 122.145 9.96 121.75 10.216C121.366 10.472 121.062 10.824 120.838 11.272C120.625 11.72 120.518 12.2267 120.518 12.792C120.518 13.3573 120.625 13.864 120.838 14.312C121.062 14.76 121.366 15.112 121.75 15.368C122.145 15.624 122.593 15.752 123.094 15.752ZM133.658 8.424C135.578 8.424 136.538 9.576 136.538 11.88V16.232C136.538 16.4453 136.463 16.6267 136.314 16.776C136.175 16.9253 135.994 17 135.77 17C135.557 17 135.375 16.9253 135.226 16.776C135.087 16.6267 135.018 16.4453 135.018 16.232V11.896C135.018 11.2667 134.874 10.7653 134.586 10.392C134.298 10.0187 133.829 9.832 133.178 9.832C132.751 9.832 132.362 9.928 132.01 10.12C131.669 10.3013 131.397 10.552 131.194 10.872C131.002 11.1813 130.906 11.5227 130.906 11.896V16.232C130.906 16.4453 130.831 16.6267 130.682 16.776C130.543 16.9253 130.362 17 130.138 17C129.914 17 129.733 16.9307 129.594 16.792C129.455 16.6427 129.386 16.456 129.386 16.232V9.384C129.386 9.17067 129.455 8.98933 129.594 8.84C129.743 8.69067 129.925 8.616 130.138 8.616C130.362 8.616 130.543 8.69067 130.682 8.84C130.831 8.98933 130.906 9.17067 130.906 9.384V9.944C131.183 9.51733 131.567 9.16 132.058 8.872C132.559 8.57333 133.093 8.424 133.658 8.424ZM144.97 8.536C145.194 8.536 145.375 8.61067 145.514 8.76C145.663 8.90933 145.738 9.09067 145.738 9.304V16.216C145.738 17.5493 145.37 18.5467 144.634 19.208C143.898 19.8693 142.927 20.2 141.722 20.2C141.327 20.2 140.938 20.1627 140.554 20.088C140.17 20.0133 139.855 19.912 139.61 19.784C139.215 19.6027 139.018 19.3573 139.018 19.048C139.018 18.9947 139.028 18.9253 139.05 18.84C139.114 18.6587 139.204 18.52 139.322 18.424C139.439 18.328 139.572 18.28 139.722 18.28C139.807 18.28 139.887 18.296 139.962 18.328C140.292 18.4773 140.586 18.5947 140.842 18.68C141.098 18.7653 141.396 18.808 141.738 18.808C143.391 18.808 144.218 17.96 144.218 16.264V15.944C143.93 16.328 143.556 16.6267 143.098 16.84C142.65 17.0533 142.132 17.16 141.546 17.16C140.66 17.16 139.967 16.8773 139.466 16.312C138.975 15.7467 138.73 15.0053 138.73 14.088V9.304C138.73 9.08 138.799 8.89867 138.938 8.76C139.076 8.61067 139.258 8.536 139.482 8.536C139.706 8.536 139.887 8.61067 140.026 8.76C140.175 8.90933 140.25 9.09067 140.25 9.304V13.688C140.25 14.392 140.404 14.9147 140.714 15.256C141.023 15.5867 141.492 15.752 142.122 15.752C142.73 15.752 143.231 15.56 143.626 15.176C144.02 14.792 144.218 14.296 144.218 13.688V9.304C144.218 9.08 144.287 8.89867 144.426 8.76C144.564 8.61067 144.746 8.536 144.97 8.536Z" fill="#919191"/>
<path d="M190.504 15.512C190.728 15.512 190.909 15.5813 191.048 15.72C191.197 15.8587 191.272 16.04 191.272 16.264C191.272 16.4773 191.197 16.6533 191.048 16.792C190.909 16.9307 190.728 17 190.504 17H185.096C184.872 17 184.685 16.9253 184.536 16.776C184.397 16.6267 184.328 16.4453 184.328 16.232V6.568C184.328 6.35467 184.403 6.17333 184.552 6.024C184.701 5.87467 184.893 5.8 185.128 5.8C185.341 5.8 185.523 5.87467 185.672 6.024C185.832 6.17333 185.912 6.35467 185.912 6.568V15.512H190.504ZM200.293 12.488C200.282 12.68 200.202 12.8453 200.053 12.984C199.904 13.112 199.728 13.176 199.525 13.176H193.893C193.968 13.9547 194.261 14.5787 194.773 15.048C195.296 15.5173 195.93 15.752 196.677 15.752C197.189 15.752 197.605 15.6773 197.925 15.528C198.245 15.3787 198.528 15.1867 198.773 14.952C198.933 14.856 199.088 14.808 199.237 14.808C199.418 14.808 199.568 14.872 199.685 15C199.813 15.128 199.877 15.2773 199.877 15.448C199.877 15.672 199.77 15.8747 199.557 16.056C199.248 16.3653 198.837 16.6267 198.325 16.84C197.813 17.0533 197.29 17.16 196.757 17.16C195.893 17.16 195.13 16.9787 194.469 16.616C193.818 16.2533 193.312 15.7467 192.949 15.096C192.597 14.4453 192.421 13.7093 192.421 12.888C192.421 11.992 192.602 11.208 192.965 10.536C193.338 9.85333 193.824 9.33067 194.421 8.968C195.029 8.60533 195.68 8.424 196.373 8.424C197.056 8.424 197.696 8.6 198.293 8.952C198.89 9.304 199.37 9.78933 199.733 10.408C200.096 11.0267 200.282 11.72 200.293 12.488ZM196.373 9.832C195.776 9.832 195.258 10.0027 194.821 10.344C194.384 10.6747 194.096 11.192 193.957 11.896H198.677V11.768C198.624 11.2027 198.368 10.7387 197.909 10.376C197.461 10.0133 196.949 9.832 196.373 9.832ZM208.988 8.504C209.212 8.504 209.393 8.57867 209.532 8.728C209.681 8.86667 209.756 9.05333 209.756 9.288V16.328C209.756 17.192 209.569 17.912 209.196 18.488C208.833 19.0747 208.337 19.5067 207.708 19.784C207.078 20.0613 206.369 20.2 205.58 20.2C205.153 20.2 204.652 20.1253 204.076 19.976C203.51 19.8267 203.148 19.672 202.988 19.512C202.657 19.3413 202.492 19.128 202.492 18.872C202.492 18.808 202.513 18.7227 202.556 18.616C202.673 18.3493 202.87 18.216 203.148 18.216C203.286 18.216 203.436 18.248 203.596 18.312C204.449 18.6427 205.116 18.808 205.596 18.808C206.449 18.808 207.1 18.6 207.548 18.184C208.006 17.7787 208.236 17.2187 208.236 16.504V15.64C208.012 16.056 207.633 16.4133 207.1 16.712C206.577 17.0107 206.022 17.16 205.436 17.16C204.7 17.16 204.028 16.9733 203.42 16.6C202.812 16.2267 202.332 15.7093 201.98 15.048C201.638 14.376 201.468 13.624 201.468 12.792C201.468 11.96 201.638 11.2133 201.98 10.552C202.332 9.88 202.806 9.35733 203.404 8.984C204.012 8.61067 204.678 8.424 205.404 8.424C205.99 8.424 206.534 8.55733 207.036 8.824C207.548 9.09067 207.948 9.416 208.236 9.8V9.288C208.236 9.064 208.305 8.87733 208.444 8.728C208.582 8.57867 208.764 8.504 208.988 8.504ZM205.612 15.752C206.134 15.752 206.598 15.6293 207.004 15.384C207.409 15.128 207.724 14.776 207.948 14.328C208.182 13.8693 208.3 13.3573 208.3 12.792C208.3 12.2267 208.182 11.72 207.948 11.272C207.724 10.824 207.409 10.472 207.004 10.216C206.598 9.96 206.134 9.832 205.612 9.832C205.1 9.832 204.641 9.96 204.236 10.216C203.83 10.472 203.51 10.8293 203.276 11.288C203.052 11.736 202.94 12.2373 202.94 12.792C202.94 13.3467 203.052 13.8533 203.276 14.312C203.51 14.76 203.83 15.112 204.236 15.368C204.641 15.624 205.1 15.752 205.612 15.752ZM218.733 8.504C218.957 8.504 219.138 8.57867 219.277 8.728C219.426 8.86667 219.501 9.05333 219.501 9.288V16.232C219.501 16.4453 219.426 16.6267 219.277 16.776C219.138 16.9253 218.957 17 218.733 17C218.509 17 218.328 16.9307 218.189 16.792C218.05 16.6427 217.981 16.456 217.981 16.232V15.816C217.704 16.1893 217.325 16.5093 216.845 16.776C216.365 17.032 215.848 17.16 215.293 17.16C214.568 17.16 213.906 16.9733 213.309 16.6C212.722 16.2267 212.258 15.7093 211.917 15.048C211.586 14.376 211.421 13.624 211.421 12.792C211.421 11.96 211.586 11.2133 211.917 10.552C212.258 9.88 212.722 9.35733 213.309 8.984C213.896 8.61067 214.541 8.424 215.245 8.424C215.81 8.424 216.333 8.54133 216.813 8.776C217.304 9.01067 217.693 9.30933 217.981 9.672V9.288C217.981 9.064 218.05 8.87733 218.189 8.728C218.328 8.57867 218.509 8.504 218.733 8.504ZM215.469 15.752C215.97 15.752 216.413 15.624 216.797 15.368C217.192 15.112 217.496 14.76 217.709 14.312C217.933 13.864 218.045 13.3573 218.045 12.792C218.045 12.2373 217.933 11.736 217.709 11.288C217.496 10.84 217.192 10.488 216.797 10.232C216.413 9.96533 215.97 9.832 215.469 9.832C214.968 9.832 214.52 9.96 214.125 10.216C213.741 10.472 213.437 10.824 213.213 11.272C213 11.72 212.893 12.2267 212.893 12.792C212.893 13.3573 213 13.864 213.213 14.312C213.437 14.76 213.741 15.112 214.125 15.368C214.52 15.624 214.968 15.752 215.469 15.752ZM223.409 16.232C223.409 16.4453 223.334 16.6267 223.185 16.776C223.036 16.9253 222.854 17 222.641 17C222.428 17 222.246 16.9253 222.097 16.776C221.958 16.6267 221.889 16.4453 221.889 16.232V5.928C221.889 5.71467 221.964 5.53333 222.113 5.384C222.262 5.23467 222.444 5.16 222.657 5.16C222.87 5.16 223.046 5.23467 223.185 5.384C223.334 5.53333 223.409 5.71467 223.409 5.928V16.232ZM239.525 15.672C239.749 15.8747 239.861 16.0933 239.861 16.328C239.861 16.4773 239.803 16.6267 239.685 16.776C239.568 16.9253 239.413 17 239.221 17C239.04 17 238.891 16.9573 238.773 16.872L237.301 15.656C236.299 16.6587 235.04 17.16 233.525 17.16C232.789 17.16 232.117 16.9947 231.509 16.664C230.912 16.3227 230.443 15.88 230.101 15.336C229.76 14.7813 229.589 14.2 229.589 13.592C229.589 12.8453 229.787 12.184 230.181 11.608C230.576 11.0213 231.168 10.5627 231.957 10.232C231.744 9.92267 231.584 9.62933 231.477 9.352C231.371 9.07467 231.317 8.78667 231.317 8.488C231.317 7.96533 231.451 7.49067 231.717 7.064C231.984 6.62667 232.368 6.28 232.869 6.024C233.371 5.768 233.952 5.64 234.613 5.64C235.349 5.64 235.995 5.77333 236.549 6.04C237.115 6.296 237.499 6.62667 237.701 7.032C237.776 7.18133 237.813 7.34667 237.813 7.528C237.813 7.69867 237.749 7.84267 237.621 7.96C237.504 8.07733 237.344 8.136 237.141 8.136C236.907 8.136 236.736 8.05067 236.629 7.88C236.405 7.56 236.128 7.32533 235.797 7.176C235.477 7.016 235.083 6.936 234.613 6.936C234.069 6.936 233.648 7.07467 233.349 7.352C233.061 7.62933 232.917 7.98667 232.917 8.424C232.917 8.808 233.056 9.19733 233.333 9.592C233.611 9.98667 234.005 10.4613 234.517 11.016L234.805 11.336C235.424 12.0187 236.181 12.76 237.077 13.56C237.355 13.016 237.547 12.4187 237.653 11.768C237.707 11.4587 237.92 11.304 238.293 11.304C238.507 11.304 238.677 11.3947 238.805 11.576C238.944 11.7467 238.997 11.9493 238.965 12.184C238.827 13.0587 238.56 13.8373 238.165 14.52C238.603 14.904 239.056 15.288 239.525 15.672ZM233.829 15.72C234.768 15.72 235.573 15.3947 236.245 14.744C235.104 13.7413 234.139 12.792 233.349 11.896C233.2 11.736 233.024 11.5333 232.821 11.288C232.213 11.4693 231.781 11.736 231.525 12.088C231.269 12.44 231.141 12.8667 231.141 13.368C231.141 13.784 231.237 14.168 231.429 14.52C231.621 14.872 231.92 15.16 232.325 15.384C232.731 15.608 233.232 15.72 233.829 15.72ZM250.511 5.8C251.076 5.8 251.599 5.95467 252.079 6.264C252.559 6.56267 252.938 6.97333 253.215 7.496C253.503 8.01867 253.647 8.59467 253.647 9.224C253.647 9.85333 253.503 10.4347 253.215 10.968C252.938 11.5013 252.559 11.9227 252.079 12.232C251.599 12.5413 251.076 12.696 250.511 12.696H247.503V16.232C247.503 16.4453 247.434 16.6267 247.295 16.776C247.156 16.9253 246.98 17 246.767 17C246.543 17 246.362 16.9307 246.223 16.792C246.095 16.6427 246.031 16.456 246.031 16.232V6.568C246.031 6.35467 246.106 6.17333 246.255 6.024C246.404 5.87467 246.586 5.8 246.799 5.8H250.511ZM250.511 11.24C250.799 11.24 251.066 11.1493 251.311 10.968C251.556 10.776 251.748 10.5253 251.887 10.216C252.036 9.90667 252.111 9.576 252.111 9.224C252.111 8.68 251.951 8.22133 251.631 7.848C251.322 7.464 250.948 7.272 250.511 7.272H247.503V11.24H250.511ZM259.609 8.424C259.886 8.424 260.126 8.49867 260.329 8.648C260.532 8.78667 260.633 8.96267 260.633 9.176C260.633 9.432 260.564 9.62933 260.425 9.768C260.297 9.896 260.137 9.96 259.945 9.96C259.849 9.96 259.705 9.928 259.513 9.864C259.289 9.78933 259.113 9.752 258.985 9.752C258.654 9.752 258.329 9.86933 258.009 10.104C257.7 10.328 257.444 10.6427 257.241 11.048C257.049 11.4427 256.953 11.8853 256.953 12.376V16.232C256.953 16.4453 256.878 16.6267 256.729 16.776C256.59 16.9253 256.409 17 256.185 17C255.961 17 255.78 16.9307 255.641 16.792C255.502 16.6427 255.433 16.456 255.433 16.232V9.384C255.433 9.17067 255.502 8.98933 255.641 8.84C255.79 8.69067 255.972 8.616 256.185 8.616C256.409 8.616 256.59 8.69067 256.729 8.84C256.878 8.98933 256.953 9.17067 256.953 9.384V10.2C257.188 9.67733 257.54 9.256 258.009 8.936C258.478 8.60533 259.012 8.43467 259.609 8.424ZM263.482 16.232C263.482 16.4453 263.408 16.6267 263.258 16.776C263.12 16.9253 262.938 17 262.714 17C262.501 17 262.32 16.9253 262.17 16.776C262.032 16.6267 261.962 16.4453 261.962 16.232V9.304C261.962 9.09067 262.032 8.90933 262.17 8.76C262.32 8.61067 262.501 8.536 262.714 8.536C262.938 8.536 263.12 8.61067 263.258 8.76C263.408 8.90933 263.482 9.09067 263.482 9.304V16.232ZM262.714 7.48C262.405 7.48 262.181 7.42667 262.042 7.32C261.914 7.20267 261.85 7.02133 261.85 6.776V6.52C261.85 6.264 261.92 6.08267 262.058 5.976C262.208 5.86933 262.432 5.816 262.73 5.816C263.029 5.816 263.242 5.87467 263.37 5.992C263.509 6.09867 263.578 6.27467 263.578 6.52V6.776C263.578 7.032 263.509 7.21333 263.37 7.32C263.232 7.42667 263.013 7.48 262.714 7.48ZM272.067 8.536C272.27 8.536 272.441 8.60533 272.579 8.744C272.718 8.872 272.787 9.02667 272.787 9.208C272.787 9.304 272.75 9.43733 272.675 9.608L269.635 16.52C269.571 16.6587 269.481 16.7707 269.363 16.856C269.246 16.9413 269.118 16.9893 268.979 17C268.809 17.0213 268.649 16.9893 268.499 16.904C268.361 16.8187 268.254 16.6907 268.179 16.52L265.139 9.608C265.086 9.448 265.059 9.31467 265.059 9.208C265.059 9.03733 265.129 8.88267 265.267 8.744C265.406 8.60533 265.587 8.536 265.811 8.536C265.971 8.536 266.115 8.57867 266.243 8.664C266.371 8.73867 266.473 8.856 266.547 9.016L268.963 14.632L271.379 9.016C271.529 8.696 271.758 8.536 272.067 8.536ZM281.202 8.504C281.426 8.504 281.607 8.57867 281.746 8.728C281.895 8.86667 281.97 9.05333 281.97 9.288V16.232C281.97 16.4453 281.895 16.6267 281.746 16.776C281.607 16.9253 281.426 17 281.202 17C280.978 17 280.796 16.9307 280.658 16.792C280.519 16.6427 280.45 16.456 280.45 16.232V15.816C280.172 16.1893 279.794 16.5093 279.314 16.776C278.834 17.032 278.316 17.16 277.762 17.16C277.036 17.16 276.375 16.9733 275.778 16.6C275.191 16.2267 274.727 15.7093 274.386 15.048C274.055 14.376 273.89 13.624 273.89 12.792C273.89 11.96 274.055 11.2133 274.386 10.552C274.727 9.88 275.191 9.35733 275.778 8.984C276.364 8.61067 277.01 8.424 277.714 8.424C278.279 8.424 278.802 8.54133 279.282 8.776C279.772 9.01067 280.162 9.30933 280.45 9.672V9.288C280.45 9.064 280.519 8.87733 280.658 8.728C280.796 8.57867 280.978 8.504 281.202 8.504ZM277.938 15.752C278.439 15.752 278.882 15.624 279.266 15.368C279.66 15.112 279.964 14.76 280.178 14.312C280.402 13.864 280.514 13.3573 280.514 12.792C280.514 12.2373 280.402 11.736 280.178 11.288C279.964 10.84 279.66 10.488 279.266 10.232C278.882 9.96533 278.439 9.832 277.938 9.832C277.436 9.832 276.988 9.96 276.594 10.216C276.21 10.472 275.906 10.824 275.682 11.272C275.468 11.72 275.362 12.2267 275.362 12.792C275.362 13.3573 275.468 13.864 275.682 14.312C275.906 14.76 276.21 15.112 276.594 15.368C276.988 15.624 277.436 15.752 277.938 15.752ZM287.878 8.424C288.72 8.424 289.419 8.55733 289.974 8.824C290.539 9.09067 290.822 9.432 290.822 9.848C290.822 10.0293 290.763 10.1947 290.646 10.344C290.528 10.4827 290.379 10.552 290.198 10.552C290.059 10.552 289.947 10.5307 289.862 10.488C289.787 10.4453 289.68 10.376 289.542 10.28C289.478 10.216 289.376 10.1413 289.238 10.056C289.11 9.992 288.928 9.93867 288.694 9.896C288.459 9.85333 288.246 9.832 288.054 9.832C287.499 9.832 287.008 9.96 286.582 10.216C286.155 10.472 285.824 10.8293 285.59 11.288C285.355 11.736 285.238 12.2373 285.238 12.792C285.238 13.3573 285.35 13.864 285.574 14.312C285.808 14.76 286.134 15.112 286.55 15.368C286.966 15.624 287.44 15.752 287.974 15.752C288.528 15.752 288.976 15.6667 289.318 15.496C289.392 15.4533 289.494 15.384 289.622 15.288C289.728 15.2027 289.819 15.1387 289.894 15.096C289.979 15.0533 290.08 15.032 290.198 15.032C290.411 15.032 290.576 15.1013 290.694 15.24C290.822 15.368 290.886 15.5387 290.886 15.752C290.886 15.976 290.742 16.2 290.454 16.424C290.176 16.6373 289.798 16.8133 289.318 16.952C288.848 17.0907 288.342 17.16 287.798 17.16C286.987 17.16 286.272 16.9733 285.654 16.6C285.035 16.216 284.555 15.6933 284.214 15.032C283.883 14.36 283.718 13.6133 283.718 12.792C283.718 11.9707 283.894 11.2293 284.246 10.568C284.598 9.896 285.088 9.37333 285.718 9C286.347 8.616 287.067 8.424 287.878 8.424ZM298.689 8.536C298.913 8.536 299.094 8.61067 299.233 8.76C299.382 8.90933 299.457 9.09067 299.457 9.304V16.216C299.457 17.5493 299.089 18.5467 298.353 19.208C297.617 19.8693 296.646 20.2 295.441 20.2C295.046 20.2 294.657 20.1627 294.273 20.088C293.889 20.0133 293.574 19.912 293.329 19.784C292.934 19.6027 292.737 19.3573 292.737 19.048C292.737 18.9947 292.747 18.9253 292.769 18.84C292.833 18.6587 292.923 18.52 293.041 18.424C293.158 18.328 293.291 18.28 293.441 18.28C293.526 18.28 293.606 18.296 293.681 18.328C294.011 18.4773 294.305 18.5947 294.561 18.68C294.817 18.7653 295.115 18.808 295.457 18.808C297.11 18.808 297.937 17.96 297.937 16.264V15.944C297.649 16.328 297.275 16.6267 296.817 16.84C296.369 17.0533 295.851 17.16 295.265 17.16C294.379 17.16 293.686 16.8773 293.185 16.312C292.694 15.7467 292.449 15.0053 292.449 14.088V9.304C292.449 9.08 292.518 8.89867 292.657 8.76C292.795 8.61067 292.977 8.536 293.201 8.536C293.425 8.536 293.606 8.61067 293.745 8.76C293.894 8.90933 293.969 9.09067 293.969 9.304V13.688C293.969 14.392 294.123 14.9147 294.433 15.256C294.742 15.5867 295.211 15.752 295.841 15.752C296.449 15.752 296.95 15.56 297.345 15.176C297.739 14.792 297.937 14.296 297.937 13.688V9.304C297.937 9.08 298.006 8.89867 298.145 8.76C298.283 8.61067 298.465 8.536 298.689 8.536Z" fill="#919191"/>
<path d="M341.312 6.456C341.568 6.59467 341.696 6.808 341.696 7.096C341.696 7.288 341.632 7.464 341.504 7.624C341.376 7.79467 341.2 7.88 340.976 7.88C340.827 7.88 340.683 7.84267 340.544 7.768C339.883 7.39467 339.168 7.208 338.4 7.208C337.6 7.208 336.891 7.384 336.272 7.736C335.664 8.088 335.189 8.584 334.848 9.224C334.507 9.85333 334.336 10.5787 334.336 11.4C334.336 12.2853 334.512 13.048 334.864 13.688C335.216 14.328 335.701 14.8187 336.32 15.16C336.939 15.4907 337.632 15.656 338.4 15.656C339.189 15.656 339.904 15.464 340.544 15.08C340.672 15.016 340.811 14.984 340.96 14.984C341.195 14.984 341.381 15.0747 341.52 15.256C341.648 15.416 341.712 15.5867 341.712 15.768C341.712 15.896 341.675 16.0187 341.6 16.136C341.536 16.2427 341.445 16.328 341.328 16.392C340.912 16.6267 340.443 16.8133 339.92 16.952C339.408 17.0907 338.901 17.16 338.4 17.16C337.365 17.16 336.411 16.9307 335.536 16.472C334.672 16.0133 333.979 15.3467 333.456 14.472C332.944 13.5973 332.688 12.5733 332.688 11.4C332.688 10.3227 332.933 9.352 333.424 8.488C333.925 7.61333 334.608 6.93067 335.472 6.44C336.347 5.93867 337.323 5.688 338.4 5.688C339.435 5.688 340.405 5.944 341.312 6.456ZM351.275 12.808C351.275 13.64 351.088 14.3867 350.715 15.048C350.342 15.7093 349.83 16.2267 349.179 16.6C348.539 16.9733 347.83 17.16 347.051 17.16C346.272 17.16 345.558 16.9733 344.907 16.6C344.267 16.2267 343.76 15.7093 343.387 15.048C343.014 14.3867 342.827 13.64 342.827 12.808C342.827 11.976 343.014 11.224 343.387 10.552C343.76 9.88 344.267 9.35733 344.907 8.984C345.558 8.61067 346.272 8.424 347.051 8.424C347.83 8.424 348.539 8.61067 349.179 8.984C349.83 9.35733 350.342 9.88 350.715 10.552C351.088 11.224 351.275 11.976 351.275 12.808ZM349.755 12.808C349.755 12.232 349.632 11.72 349.387 11.272C349.152 10.8133 348.827 10.4613 348.411 10.216C348.006 9.96 347.552 9.832 347.051 9.832C346.55 9.832 346.091 9.96 345.675 10.216C345.27 10.4613 344.944 10.8133 344.699 11.272C344.464 11.72 344.347 12.232 344.347 12.808C344.347 13.3733 344.464 13.88 344.699 14.328C344.944 14.776 345.27 15.128 345.675 15.384C346.091 15.6293 346.55 15.752 347.051 15.752C347.552 15.752 348.006 15.6293 348.411 15.384C348.827 15.128 349.152 14.776 349.387 14.328C349.632 13.88 349.755 13.3733 349.755 12.808ZM357.314 8.424C359.234 8.424 360.194 9.576 360.194 11.88V16.232C360.194 16.4453 360.12 16.6267 359.97 16.776C359.832 16.9253 359.65 17 359.426 17C359.213 17 359.032 16.9253 358.882 16.776C358.744 16.6267 358.674 16.4453 358.674 16.232V11.896C358.674 11.2667 358.53 10.7653 358.242 10.392C357.954 10.0187 357.485 9.832 356.834 9.832C356.408 9.832 356.018 9.928 355.666 10.12C355.325 10.3013 355.053 10.552 354.85 10.872C354.658 11.1813 354.562 11.5227 354.562 11.896V16.232C354.562 16.4453 354.488 16.6267 354.338 16.776C354.2 16.9253 354.018 17 353.794 17C353.57 17 353.389 16.9307 353.25 16.792C353.112 16.6427 353.042 16.456 353.042 16.232V9.384C353.042 9.17067 353.112 8.98933 353.25 8.84C353.4 8.69067 353.581 8.616 353.794 8.616C354.018 8.616 354.2 8.69067 354.338 8.84C354.488 8.98933 354.562 9.17067 354.562 9.384V9.944C354.84 9.51733 355.224 9.16 355.714 8.872C356.216 8.57333 356.749 8.424 357.314 8.424ZM364.736 10.104V14.872C364.736 15.4053 364.976 15.672 365.456 15.672C365.531 15.672 365.632 15.656 365.76 15.624C365.888 15.5813 365.989 15.56 366.064 15.56C366.203 15.56 366.32 15.6187 366.416 15.736C366.512 15.8533 366.56 16.0027 366.56 16.184C366.56 16.408 366.432 16.6 366.176 16.76C365.92 16.92 365.632 17 365.312 17C364.96 17 364.635 16.9627 364.336 16.888C364.048 16.8133 363.787 16.6267 363.552 16.328C363.328 16.0187 363.216 15.5547 363.216 14.936V10.104H362.288C362.085 10.104 361.915 10.04 361.776 9.912C361.648 9.77333 361.584 9.60267 361.584 9.4C361.584 9.19733 361.648 9.032 361.776 8.904C361.915 8.776 362.085 8.712 362.288 8.712H363.216V7.368C363.216 7.15467 363.285 6.97333 363.424 6.824C363.573 6.67467 363.76 6.6 363.984 6.6C364.197 6.6 364.373 6.67467 364.512 6.824C364.661 6.97333 364.736 7.15467 364.736 7.368V8.712H366.064C366.267 8.712 366.432 8.78133 366.56 8.92C366.699 9.048 366.768 9.21333 366.768 9.416C366.768 9.61867 366.699 9.784 366.56 9.912C366.432 10.04 366.267 10.104 366.064 10.104H364.736ZM375.342 8.504C375.566 8.504 375.748 8.57867 375.886 8.728C376.036 8.86667 376.11 9.05333 376.11 9.288V16.232C376.11 16.4453 376.036 16.6267 375.886 16.776C375.748 16.9253 375.566 17 375.342 17C375.118 17 374.937 16.9307 374.798 16.792C374.66 16.6427 374.59 16.456 374.59 16.232V15.816C374.313 16.1893 373.934 16.5093 373.454 16.776C372.974 17.032 372.457 17.16 371.902 17.16C371.177 17.16 370.516 16.9733 369.918 16.6C369.332 16.2267 368.868 15.7093 368.526 15.048C368.196 14.376 368.03 13.624 368.03 12.792C368.03 11.96 368.196 11.2133 368.526 10.552C368.868 9.88 369.332 9.35733 369.918 8.984C370.505 8.61067 371.15 8.424 371.854 8.424C372.42 8.424 372.942 8.54133 373.422 8.776C373.913 9.01067 374.302 9.30933 374.59 9.672V9.288C374.59 9.064 374.66 8.87733 374.798 8.728C374.937 8.57867 375.118 8.504 375.342 8.504ZM372.078 15.752C372.58 15.752 373.022 15.624 373.406 15.368C373.801 15.112 374.105 14.76 374.318 14.312C374.542 13.864 374.654 13.3573 374.654 12.792C374.654 12.2373 374.542 11.736 374.318 11.288C374.105 10.84 373.801 10.488 373.406 10.232C373.022 9.96533 372.58 9.832 372.078 9.832C371.577 9.832 371.129 9.96 370.734 10.216C370.35 10.472 370.046 10.824 369.822 11.272C369.609 11.72 369.502 12.2267 369.502 12.792C369.502 13.3573 369.609 13.864 369.822 14.312C370.046 14.76 370.35 15.112 370.734 15.368C371.129 15.624 371.577 15.752 372.078 15.752ZM382.018 8.424C382.861 8.424 383.56 8.55733 384.114 8.824C384.68 9.09067 384.962 9.432 384.962 9.848C384.962 10.0293 384.904 10.1947 384.786 10.344C384.669 10.4827 384.52 10.552 384.338 10.552C384.2 10.552 384.088 10.5307 384.002 10.488C383.928 10.4453 383.821 10.376 383.682 10.28C383.618 10.216 383.517 10.1413 383.378 10.056C383.25 9.992 383.069 9.93867 382.834 9.896C382.6 9.85333 382.386 9.832 382.194 9.832C381.64 9.832 381.149 9.96 380.722 10.216C380.296 10.472 379.965 10.8293 379.73 11.288C379.496 11.736 379.378 12.2373 379.378 12.792C379.378 13.3573 379.49 13.864 379.714 14.312C379.949 14.76 380.274 15.112 380.69 15.368C381.106 15.624 381.581 15.752 382.114 15.752C382.669 15.752 383.117 15.6667 383.458 15.496C383.533 15.4533 383.634 15.384 383.762 15.288C383.869 15.2027 383.96 15.1387 384.034 15.096C384.12 15.0533 384.221 15.032 384.338 15.032C384.552 15.032 384.717 15.1013 384.834 15.24C384.962 15.368 385.026 15.5387 385.026 15.752C385.026 15.976 384.882 16.2 384.594 16.424C384.317 16.6373 383.938 16.8133 383.458 16.952C382.989 17.0907 382.482 17.16 381.938 17.16C381.128 17.16 380.413 16.9733 379.794 16.6C379.176 16.216 378.696 15.6933 378.354 15.032C378.024 14.36 377.858 13.6133 377.858 12.792C377.858 11.9707 378.034 11.2293 378.386 10.568C378.738 9.896 379.229 9.37333 379.858 9C380.488 8.616 381.208 8.424 382.018 8.424ZM388.861 10.104V14.872C388.861 15.4053 389.101 15.672 389.581 15.672C389.656 15.672 389.757 15.656 389.885 15.624C390.013 15.5813 390.114 15.56 390.189 15.56C390.328 15.56 390.445 15.6187 390.541 15.736C390.637 15.8533 390.685 16.0027 390.685 16.184C390.685 16.408 390.557 16.6 390.301 16.76C390.045 16.92 389.757 17 389.437 17C389.085 17 388.76 16.9627 388.461 16.888C388.173 16.8133 387.912 16.6267 387.677 16.328C387.453 16.0187 387.341 15.5547 387.341 14.936V10.104H386.413C386.21 10.104 386.04 10.04 385.901 9.912C385.773 9.77333 385.709 9.60267 385.709 9.4C385.709 9.19733 385.773 9.032 385.901 8.904C386.04 8.776 386.21 8.712 386.413 8.712H387.341V7.368C387.341 7.15467 387.41 6.97333 387.549 6.824C387.698 6.67467 387.885 6.6 388.109 6.6C388.322 6.6 388.498 6.67467 388.637 6.824C388.786 6.97333 388.861 7.15467 388.861 7.368V8.712H390.189C390.392 8.712 390.557 8.78133 390.685 8.92C390.824 9.048 390.893 9.21333 390.893 9.416C390.893 9.61867 390.824 9.784 390.685 9.912C390.557 10.04 390.392 10.104 390.189 10.104H388.861Z" fill="#919191"/>
</svg>
