<svg width="20" height="18" viewBox="0 0 20 18" fill="none" xmlns="http://www.w3.org/2000/svg">
<path fill-rule="evenodd" clip-rule="evenodd" d="M3.61846 13.5942C3.68117 13.5252 3.75761 13.4701 3.84284 13.4323C3.92806 13.3946 4.02025 13.3751 4.11346 13.375L19.3868 13.3875C19.4518 13.3876 19.5154 13.4066 19.5699 13.4422C19.6243 13.4778 19.6673 13.5285 19.6935 13.588C19.7197 13.6475 19.728 13.7134 19.7175 13.7776C19.707 13.8417 19.6781 13.9015 19.6343 13.9496L16.3818 17.5308C16.319 17.5999 16.2426 17.655 16.1573 17.6927C16.0719 17.7305 15.9797 17.75 15.8864 17.75L0.613471 17.7375C0.548429 17.7374 0.484823 17.7184 0.430383 17.6827C0.375942 17.6472 0.333008 17.5965 0.306798 17.537C0.280585 17.4775 0.272225 17.4116 0.282729 17.3474C0.293233 17.2833 0.322152 17.2235 0.365971 17.1754L3.61846 13.5942ZM19.6343 10.6129C19.6781 10.661 19.707 10.7207 19.7175 10.7849C19.728 10.8491 19.7197 10.915 19.6935 10.9745C19.6673 11.034 19.6243 11.0847 19.5699 11.1202C19.5154 11.1559 19.4518 11.1749 19.3868 11.175L4.11388 11.1875C4.02061 11.1875 3.92834 11.168 3.84302 11.1302C3.75771 11.0925 3.68123 11.0374 3.61846 10.9683L0.365971 7.385C0.322152 7.33694 0.293233 7.27717 0.282729 7.21298C0.272225 7.14879 0.280585 7.08294 0.306798 7.02342C0.333008 6.96388 0.375942 6.91325 0.430383 6.87767C0.484823 6.84206 0.548429 6.82304 0.613471 6.82292L15.8868 6.81042C15.98 6.81048 16.0722 6.83 16.1574 6.86775C16.2427 6.90548 16.3191 6.9606 16.3818 7.02958L19.6343 10.6129ZM3.61846 0.469167C3.68117 0.400191 3.75761 0.345068 3.84284 0.307328C3.92806 0.269588 4.02025 0.250062 4.11346 0.25L19.3868 0.2625C19.4518 0.262632 19.5154 0.281649 19.5699 0.317241C19.6243 0.352833 19.6673 0.403468 19.6935 0.462996C19.7197 0.522523 19.728 0.588381 19.7175 0.652571C19.707 0.716758 19.6781 0.776517 19.6343 0.824583L16.3818 4.40583C16.319 4.47485 16.2426 4.53002 16.1573 4.56775C16.0719 4.6055 15.9797 4.625 15.8864 4.625L0.613471 4.6125C0.548429 4.61237 0.484823 4.59335 0.430383 4.55775C0.375942 4.52217 0.333008 4.47154 0.306798 4.412C0.280585 4.35248 0.272225 4.28662 0.282729 4.22244C0.293233 4.15825 0.322152 4.09848 0.365971 4.05042L3.61846 0.469167Z" fill="url(#paint0_linear)"/>
<defs>
<linearGradient id="paint0_linear" x1="0.868471" y1="18.1317" x2="19.1318" y2="-0.131666" gradientUnits="userSpaceOnUse">
<stop stop-color="#9945FF"/>
<stop offset="0.2" stop-color="#7962E7"/>
<stop offset="1" stop-color="#00D18C"/>
</linearGradient>
</defs>
</svg>
