<svg width="20" height="13" viewBox="0 0 20 13" fill="none" xmlns="http://www.w3.org/2000/svg">
<g clip-path="url(#clip0)">
<path d="M4.09582 2.44978C7.35657 -0.785912 12.6433 -0.785912 15.904 2.44978L16.2965 2.8392C16.4595 3.00098 16.4595 3.26328 16.2965 3.42507L14.954 4.7572C14.8725 4.83809 14.7403 4.83809 14.6588 4.7572L14.1188 4.22131C11.844 1.96401 8.15586 1.96401 5.88108 4.22131L5.30274 4.7952C5.22122 4.87609 5.08906 4.87609 5.00754 4.7952L3.66509 3.46307C3.50205 3.30129 3.50205 3.03898 3.66509 2.8772L4.09582 2.44978ZM18.6803 5.20476L19.8751 6.39036C20.0382 6.55214 20.0382 6.81445 19.8751 6.97623L14.4878 12.3223C14.3247 12.484 14.0604 12.484 13.8974 12.3223C13.8974 12.3223 13.8974 12.3223 13.8974 12.3223L10.0738 8.52803C10.033 8.48758 9.96692 8.48758 9.92616 8.52803C9.92616 8.52803 9.92616 8.52803 9.92616 8.52803L6.10263 12.3223C5.93959 12.484 5.67526 12.484 5.51222 12.3223C5.51222 12.3223 5.51222 12.3223 5.51221 12.3223L0.124719 6.97616C-0.0383179 6.81438 -0.0383179 6.55207 0.124719 6.39029L1.3195 5.20469C1.48254 5.04291 1.74687 5.04291 1.90991 5.20469L5.73358 8.99897C5.77434 9.03942 5.84042 9.03942 5.88118 8.99897C5.88118 8.99897 5.88118 8.99897 5.88118 8.99897L9.70466 5.20469C9.86769 5.0429 10.132 5.0429 10.2951 5.20468C10.2951 5.20468 10.2951 5.20468 10.2951 5.20468L14.1187 8.99897C14.1595 9.03941 14.2256 9.03941 14.2663 8.99897L18.0899 5.20476C18.253 5.04297 18.5173 5.04297 18.6803 5.20476Z" fill="#3B99FC"/>
</g>
<defs>
<clipPath id="clip0">
<rect width="20" height="12.5" fill="white"/>
</clipPath>
</defs>
</svg>
